/* XPM */
static char * n_exit_xpm[] = {
"64 64 594 2",
"  	c #1D212C",
". 	c #1F232E",
"+ 	c #272C38",
"@ 	c #282E39",
"# 	c #282D39",
"$ 	c #242832",
"% 	c #222731",
"& 	c #1D212D",
"* 	c #252B36",
"= 	c #434A51",
"- 	c #484F56",
"; 	c #484F55",
"> 	c #484F54",
", 	c #434B50",
"' 	c #282D36",
") 	c #232832",
"! 	c #242933",
"~ 	c #212530",
"{ 	c #1E222D",
"] 	c #222631",
"^ 	c #232632",
"/ 	c #424550",
"( 	c #484A55",
"_ 	c #494B56",
": 	c #4E535C",
"< 	c #4E565B",
"[ 	c #4A5256",
"} 	c #495155",
"| 	c #474F54",
"1 	c #474E54",
"2 	c #485055",
"3 	c #5B6063",
"4 	c #5A5C60",
"5 	c #585A5E",
"6 	c #585A5F",
"7 	c #57595E",
"8 	c #6D6F75",
"9 	c #7C7F84",
"0 	c #8A8E91",
"a 	c #8C9193",
"b 	c #8D9194",
"c 	c #8F9396",
"d 	c #8F9497",
"e 	c #8E9296",
"f 	c #888B90",
"g 	c #707278",
"h 	c #67696F",
"i 	c #73757B",
"j 	c #7A7C82",
"k 	c #707277",
"l 	c #787B7E",
"m 	c #7A7E80",
"n 	c #444850",
"o 	c #40434E",
"p 	c #444652",
"q 	c #434651",
"r 	c #3E404C",
"s 	c #262935",
"t 	c #4D505B",
"u 	c #4E525D",
"v 	c #6B757C",
"w 	c #545D61",
"x 	c #545D62",
"y 	c #535C61",
"z 	c #4B4F59",
"A 	c #4A4D57",
"B 	c #4B4E58",
"C 	c #797B7C",
"D 	c #939391",
"E 	c #91918F",
"F 	c #BDBEBE",
"G 	c #D8D9D9",
"H 	c #D7D8D8",
"I 	c #C0C0C0",
"J 	c #B2B2B2",
"K 	c #C9CACA",
"L 	c #BFBFBF",
"M 	c #747A7D",
"N 	c #545C61",
"O 	c #545C62",
"P 	c #525A60",
"Q 	c #494D57",
"R 	c #444752",
"S 	c #3D404B",
"T 	c #4C4F5A",
"U 	c #51595E",
"V 	c #555E63",
"W 	c #676C70",
"X 	c #707175",
"Y 	c #858686",
"Z 	c #929290",
"` 	c #929391",
" .	c #8F8F8E",
"..	c #8D8D8C",
"+.	c #A7A7A6",
"@.	c #B5B6B4",
"#.	c #BEBEBE",
"$.	c #C3C4C5",
"%.	c #C4C4C4",
"&.	c #B9B9B9",
"*.	c #BDBDBD",
"=.	c #C3C4C4",
"-.	c #B8B8B8",
";.	c #96989A",
">.	c #85898C",
",.	c #686F73",
"'.	c #565F64",
").	c #424450",
"!.	c #484B56",
"~.	c #535B60",
"{.	c #565E63",
"].	c #7D8080",
"^.	c #929291",
"/.	c #8C8C8B",
"(.	c #888888",
"_.	c #BBBBBB",
":.	c #DADBDB",
"<.	c #B1B1B1",
"[.	c #AEAFAF",
"}.	c #7A7F82",
"|.	c #4F565C",
"1.	c #7C7F80",
"2.	c #8D8D8D",
"3.	c #8A8A8A",
"4.	c #888889",
"5.	c #BABBBB",
"6.	c #D9DADA",
"7.	c #B1B2B2",
"8.	c #AFAFAF",
"9.	c #797E82",
"0.	c #535B61",
"a.	c #898989",
"b.	c #B4B4B4",
"c.	c #B5B5B5",
"d.	c #B3B3B3",
"e.	c #B1B1B2",
"f.	c #787D81",
"g.	c #4C505A",
"h.	c #494B57",
"i.	c #4A4D58",
"j.	c #89898A",
"k.	c #8C8D8C",
"l.	c #777877",
"m.	c #787877",
"n.	c #9C9C9C",
"o.	c #51585F",
"p.	c #474955",
"q.	c #484A56",
"r.	c #B0B0B0",
"s.	c #676766",
"t.	c #3D3E3C",
"u.	c #3C3E3B",
"v.	c #878786",
"w.	c #72747A",
"x.	c #4F555D",
"y.	c #8E8E8C",
"z.	c #676866",
"A.	c #3E3F3D",
"B.	c #3F403E",
"C.	c #3E3F3C",
"D.	c #878887",
"E.	c #434652",
"F.	c #7C8080",
"G.	c #8B8B8B",
"H.	c #3E403E",
"I.	c #454853",
"J.	c #797F82",
"K.	c #50575E",
"L.	c #4D555B",
"M.	c #272B35",
"N.	c #3E3F3E",
"O.	c #4A4E58",
"P.	c #4F575D",
"Q.	c #242833",
"R.	c #555E62",
"S.	c #4E565C",
"T.	c #4A5257",
"U.	c #232732",
"V.	c #444B50",
"W.	c #4F575C",
"X.	c #797C7D",
"Y.	c #495156",
"Z.	c #76797B",
"`.	c #4F575B",
" +	c #8B8C8B",
".+	c #282C36",
"++	c #4F585E",
"@+	c #50595F",
"#+	c #787C7D",
"$+	c #4E575D",
"%+	c #2B3039",
"&+	c #2A2F39",
"*+	c #2B303A",
"=+	c #2B313B",
"-+	c #2E343F",
";+	c #2F3540",
">+	c #717476",
",+	c #878787",
"'+	c #272C35",
")+	c #454C51",
"!+	c #2E333C",
"~+	c #495158",
"{+	c #4A5359",
"]+	c #676A6E",
"^+	c #787978",
"/+	c #787878",
"(+	c #9C9D9C",
"_+	c #4B5359",
":+	c #747779",
"<+	c #B6B6B6",
"[+	c #B5B5B6",
"}+	c #B4B4B6",
"|+	c #B4B3B6",
"1+	c #282D37",
"2+	c #4A5259",
"3+	c #545D63",
"4+	c #767A7C",
"5+	c #777876",
"6+	c #B1AE84",
"7+	c #D6D18D",
"8+	c #98977F",
"9+	c #767676",
"0+	c #D2CD8C",
"a+	c #96957E",
"b+	c #757676",
"c+	c #D2CE8C",
"d+	c #98977E",
"e+	c #9D9D9C",
"f+	c #636464",
"g+	c #37383A",
"h+	c #3A3C3B",
"i+	c #3C3D3B",
"j+	c #B2AD57",
"k+	c #FCF369",
"l+	c #807D4B",
"m+	c #3A3B3B",
"n+	c #B1AB57",
"o+	c #F3EB67",
"p+	c #7B794A",
"q+	c #393A3A",
"r+	c #3B3C3B",
"s+	c #B1AC57",
"t+	c #F4EC68",
"u+	c #7F7C4B",
"v+	c #373839",
"w+	c #858586",
"x+	c #AEAEAE",
"y+	c #74797D",
"z+	c #4F585D",
"A+	c #A19F75",
"B+	c #979453",
"C+	c #5E5D45",
"D+	c #B2AD59",
"E+	c #FBF16B",
"F+	c #817E4D",
"G+	c #3C3D3C",
"H+	c #B1AB58",
"I+	c #F3EA69",
"J+	c #7C7A4C",
"K+	c #3F403D",
"L+	c #78764B",
"M+	c #9B9753",
"N+	c #605F45",
"O+	c #3A3B3C",
"P+	c #B2AC59",
"Q+	c #F4EB69",
"R+	c #807E4D",
"S+	c #7A774B",
"T+	c #9A9553",
"U+	c #A8A78F",
"V+	c #ADADAD",
"W+	c #5F6268",
"X+	c #252A34",
"Y+	c #282E37",
"Z+	c #444C51",
"`+	c #2E333D",
" @	c #50595E",
".@	c #C0C0BF",
"+@	c #B2B2B1",
"@@	c #DDD783",
"#@	c #7E7B4C",
"$@	c #B2AD58",
"%@	c #FBF26A",
"&@	c #817E4C",
"*@	c #3C3C3C",
"=@	c #F3EA68",
"-@	c #7C7A4B",
";@	c #40403D",
">@	c #B3AE59",
",@	c #FAF16A",
"'@	c #817F4D",
")@	c #383A3B",
"!@	c #B2AC58",
"~@	c #40413D",
"{@	c #B6B05A",
"]@	c #F6EE69",
"^@	c #CAC697",
"/@	c #B1B1B3",
"(@	c #757A7D",
"_@	c #4A5258",
":@	c #2C323D",
"<@	c #292E38",
"[@	c #292F38",
"}@	c #68737A",
"|@	c #5A6368",
"1@	c #C7C499",
"2@	c #D2CE8B",
"3@	c #96957D",
"4@	c #757574",
"5@	c #B2AF83",
"6@	c #D7D28C",
"7@	c #98977D",
"8@	c #747574",
"9@	c #B1AE83",
"0@	c #D3CE8B",
"a@	c #96957C",
"b@	c #767675",
"c@	c #D5D18C",
"d@	c #727374",
"e@	c #D3CF8B",
"f@	c #98967D",
"g@	c #767775",
"h@	c #B3B083",
"i@	c #D4D08C",
"j@	c #BEBCA4",
"k@	c #B2B2B3",
"l@	c #252A36",
"m@	c #1E222E",
"n@	c #6D787F",
"o@	c #5B6469",
"p@	c #B2B1B1",
"q@	c #464A54",
"r@	c #2B2F3C",
"s@	c #222733",
"t@	c #808080",
"u@	c #646564",
"v@	c #6B6B6B",
"w@	c #6E6E6E",
"x@	c #BBBABA",
"y@	c #6D6D6D",
"z@	c #6E6F6E",
"A@	c #6F6F6F",
"B@	c #9E9E9D",
"C@	c #424751",
"D@	c #2A2E3A",
"E@	c #2D333E",
"F@	c #515251",
"G@	c #1A1C1A",
"H@	c #262826",
"I@	c #2D2E2D",
"J@	c #C4C3C3",
"K@	c #616261",
"L@	c #2B2C2B",
"M@	c #2C2E2C",
"N@	c #2F302F",
"O@	c #8B8B8A",
"P@	c #C0BFBF",
"Q@	c #B7B7B7",
"R@	c #525960",
"S@	c #40444F",
"T@	c #292E3A",
"U@	c #C7C8C8",
"V@	c #3C3E3C",
"W@	c #262726",
"X@	c #494A49",
"Y@	c #5C5D5C",
"Z@	c #9A9A99",
"`@	c #C2C1C1",
" #	c #707070",
".#	c #717171",
"+#	c #707170",
"@#	c #636463",
"##	c #5E5E5E",
"$#	c #9C9B9B",
"%#	c #C0BEBE",
"&#	c #8C8C8C",
"*#	c #6C6D6C",
"=#	c #999999",
"-#	c #464954",
";#	c #272B38",
">#	c #A1A1A1",
",#	c #4F504F",
"'#	c #171917",
")#	c #272927",
"!#	c #313231",
"~#	c #6A6A6A",
"{#	c #ABABAB",
"]#	c #B8B7B7",
"^#	c #ACACAB",
"/#	c #272827",
"(#	c #B0B1B1",
"_#	c #4D545B",
":#	c #2C313D",
"<#	c #232734",
"[#	c #242934",
"}#	c #A2A2A2",
"|#	c #525352",
"1#	c #1B1D1B",
"2#	c #282A28",
"3#	c #303130",
"4#	c #9D9D9D",
"5#	c #AEADAD",
"6#	c #B9B8B8",
"7#	c #A4A4A4",
"8#	c #616160",
"9#	c #2A2B2A",
"0#	c #828282",
"a#	c #495157",
"b#	c #848484",
"c#	c #4C535A",
"d#	c #252A35",
"e#	c #272C37",
"f#	c #3F414D",
"g#	c #5E5F5E",
"h#	c #4D555C",
"i#	c #292F3B",
"j#	c #212633",
"k#	c #252834",
"l#	c #3E414C",
"m#	c #464854",
"n#	c #767A7B",
"o#	c #262B37",
"p#	c #3D404C",
"q#	c #4B4E59",
"r#	c #75787A",
"s#	c #424651",
"t#	c #272A36",
"u#	c #727377",
"v#	c #838483",
"w#	c #5D5E5D",
"x#	c #292A29",
"y#	c #818181",
"z#	c #282E3A",
"A#	c #6F7074",
"B#	c #525452",
"C#	c #6F706F",
"D#	c #444753",
"E#	c #464D55",
"F#	c #232835",
"G#	c #2A2E3B",
"H#	c #636469",
"I#	c #1C1D1C",
"J#	c #7C7D7C",
"K#	c #595959",
"L#	c #6F7178",
"M#	c #3F424E",
"N#	c #222734",
"O#	c #2A2F38",
"P#	c #646569",
"Q#	c #7A7B7A",
"R#	c #868786",
"S#	c #5D6067",
"T#	c #2B303C",
"U#	c #2D323E",
"V#	c #2E333F",
"W#	c #2C303D",
"X#	c #2A2F3B",
"Y#	c #1E232E",
"Z#	c #252936",
"`#	c #3E414D",
" $	c #50585E",
".$	c #737678",
"+$	c #1C1E1C",
"@$	c #7A7C7A",
"#$	c #60626A",
"$$	c #262A36",
"%$	c #212632",
"&$	c #75787B",
"*$	c #ADAEAE",
"=$	c #707379",
"-$	c #292D3A",
";$	c #222531",
">$	c #737679",
",$	c #272C36",
"'$	c #262A37",
")$	c #424551",
"!$	c #4B535A",
"~$	c #686B6F",
"{$	c #7B7C7B",
"]$	c #474A55",
"^$	c #464C54",
"/$	c #65676C",
"($	c #828382",
"_$	c #666866",
":$	c #656665",
"<$	c #969796",
"[$	c #2C303B",
"}$	c #6D6E72",
"|$	c #A3A3A3",
"1$	c #7D7E7D",
"2$	c #414450",
"3$	c #4B5259",
"4$	c #31353F",
"5$	c #40424E",
"6$	c #717276",
"7$	c #6D6E6D",
"8$	c #404140",
"9$	c #555655",
"0$	c #2C303C",
"a$	c #464A55",
"b$	c #3F424D",
"c$	c #2E2F2E",
"d$	c #2C2D2C",
"e$	c #808180",
"f$	c #4A5158",
"g$	c #51595F",
"h$	c #4B5059",
"i$	c #494C57",
"j$	c #818281",
"k$	c #4E575C",
"l$	c #50575D",
"m$	c #494E57",
"n$	c #52595F",
"o$	c #454953",
"p$	c #2A2E39",
"q$	c #2D2E2E",
"r$	c #2E2F2F",
"s$	c #2F2F2F",
"t$	c #50575C",
"u$	c #4C4F5B",
"v$	c #B3B3B4",
"w$	c #9B9B84",
"x$	c #8E8D6A",
"y$	c #7A796C",
"z$	c #83836B",
"A$	c #8F8E6A",
"B$	c #A4A498",
"C$	c #50555E",
"D$	c #6B747C",
"E$	c #4F525D",
"F$	c #A3A3A2",
"G$	c #DEDCAE",
"H$	c #F8F5AC",
"I$	c #CBCAB0",
"J$	c #B2B3B1",
"K$	c #E0DDAE",
"L$	c #F9F6AC",
"M$	c #CBCAAF",
"N$	c #454D52",
"O$	c #363C44",
"P$	c #555D62",
"Q$	c #576066",
"R$	c #888989",
"S$	c #979796",
"T$	c #9F9F9F",
"U$	c #B5B59D",
"V$	c #C2C09C",
"W$	c #ACAC9D",
"X$	c #A0A09E",
"Y$	c #B6B59D",
"Z$	c #ACAC9E",
"`$	c #9F9F9E",
" %	c #9D9E9C",
".%	c #72787A",
"+%	c #474D53",
"@%	c #232731",
"#%	c #2C313C",
"$%	c #4B5358",
"%%	c #565F63",
"&%	c #8D8D8B",
"*%	c #91918E",
"=%	c #90908D",
"-%	c #8F8F8C",
";%	c #6D7274",
">%	c #343A43",
",%	c #50585D",
"'%	c #5E6067",
")%	c #696A70",
"!%	c #6A6C71",
"~%	c #6E7375",
"{%	c #6F7476",
"]%	c #707477",
"^%	c #7F8182",
"/%	c #959595",
"(%	c #A1A1A0",
"_%	c #A1A19F",
":%	c #A0A09F",
"<%	c #8F9293",
"[%	c #858A8C",
"}%	c #2B303B",
"|%	c #575F63",
"1%	c #2B313C",
"2%	c #4B545A",
"3%	c #576064",
"4%	c #76797A",
"5%	c #898A8A",
"6%	c #717579",
"7%	c #1F232F",
"8%	c #707376",
"9%	c #595C62",
"0%	c #232631",
"a%	c #626468",
"b%	c #55585F",
"c%	c #1E212C",
"    . + @ # $ %                                                                                                                 ",
"  & * = - ; > , ' ) ) ) ) ) ) %                   % ) ) ) ) ) ) ) $ ! ! ! ) ~               % ) % { ~ ] ] ] ] ] ] ~             ",
"    ^ / ( _ : < [ } | 1 1 | 2 3 4 5 5 5 5 6 7 8 9 0 a a a a a a b c d d d e f g h h h i j k l m l n o p p p p p q r s ~         ",
"    s q t u v w x y z A A A B C D D D D D D E F G H H H H H H H H H H H H H H I J J J K H L J J J M N O O O O O P Q R S ~       ",
"  ~ r T v N w U V V O O O W X Y Z ` D  ...+.@.#.$.%.%.%.%.%.%.%.%.%.%.%.%.%.%.&.J J J *.=.-.J J J ;.>.,.'.'.'.'.V O P R s       ",
"  ] ).!.~.U x V {.'.'.'.'.].^.` D D D /.(._.:.L <.<.<.<.<.<.<.<.<.<.<.<.<.<.<.J J J J J <.J J J J J [.}.'.'.'.'.'.'.O Q r ~     ",
"  ] ).( |.x {.'.'.'.'.'.'.1.D  .2...2.3.4.5.6.L J J J J J J J J J J J J J J J J J J J J J J J J J 7.8.9.O O O V V x V P q ]     ",
"  ] ).!.0.{.'.'.'.'.'.'.'.1.D /.a.a.a.a.a.5.:.L J b.c.c.c.c.c.c.c.c.c.c.c.c.c.c.c.c.c.c.c.c.c.d.J e.8.f.g.h.i.P P g.O O R s     ",
"  ] ).h.O '.'.'.'.'.'.'.'.1.D /.j.a.a.a.a.5.:.L <.k.l.m.m.m.m.m.m.m.m.m.m.m.m.m.m.m.m.m.m.m.l.n.d.<.8.f.o.i.p.!.!.h.O O Q r ~   ",
"  ~ r q.O '.'.V x V '.'.'.1.D /.a.a.a.a.a.5.:.L r.s.t.t.t.t.t.t.t.t.t.t.t.t.t.t.t.t.t.t.t.t.u.v.b.J 8.w.i.x.!.p.p.h.O V P q ]   ",
"    s R O '.'.O g.O '.'.'.1.`  .y.3.a.a.a.5.:.L r.z.A.A.B.B.B.B.B.B.B.B.B.B.B.B.B.B.B.B.B.A.C.D.b.J 8.w.h.!.p.p.p.h.O '.O E.]   ",
"    ] p O '.V P i.O '.'.'.F.` D D G.a.3.a.5.:.L r.z.A.A.B.B.B.B.B.B.B.B.B.B.B.B.B.B.B.B.H.A.C.D.b.J 8.f.P !.p.!.!.h.O '.O I.]   ",
"    ] p O '.O i.h.O '.'.'.1.`  ...3.a.a.a.5.:.L r.s.A.A.B.B.B.B.B.B.B.B.B.B.B.B.B.B.B.B.H.A.C.D.b.J 8.J.O h.!.K.P g.O '.V L.)   ",
"    M.I.O V P !.h.O '.'.'.1.D /.a.a.a.a.a.5.:.L r.z.A.A.B.B.B.B.B.B.B.N.N.N.N.B.B.B.B.B.B.A.C.D.b.J 8.J.O O.h.g.O x V '.'.P.Q.  ",
"  ] , < R.x g.p.h.O '.'.'.1.D /.3.a.a.a.a.5.:.L r.z.A.A.B.B.B.B.B.B.B.N.N.N.N.B.B.B.B.B.B.A.C.D.b.J 8.J.V O O O V '.'.'.{.S.$   ",
"  ' [ x {.V P h.i.O '.'.'.1.D /.j.a.a.a.a.5.:.L r.z.A.A.B.B.B.B.B.B.B.N.N.N.N.B.B.B.B.B.B.A.C.D.b.J 8.J.'.'.'.'.'.'.'.'.V T.U.  ",
"] V.W.V '.'.O g.P V '.'.'.X.2.3.j.a.a.a.a.5.:.L r.z.A.A.B.B.B.B.B.B.B.N.N.N.N.B.B.B.B.B.B.A.C.D.b.J 8.J.'.'.'.'.'.'.'.'.V [ '   ",
"U.Y.x {.'.'.V x V '.'.'.'.Z.4.(.j.a.a.a.a.5.:.L r.z.A.A.B.B.B.B.B.B.B.B.B.B.B.B.A.A.A.A.A.A.C.D.b.J 8.J.'.'.'.'.'.'.'.'.V `.V.] ",
"U.Y.V '.'.'.'.'.'.'.'.'.'.X...3.j.a.a.a.a.5.:.L r.z.A.A.B.B.B.B.B.B.B.A.A.B.A.B.A.A.A.A.A.A.C.D.b.J 8.J.'.'.'.'.'.'.'.'.V `.V.% ",
"U.Y.V '.'.'.'.'.'.'.'.'.'.F.^. +3.a.a.a.a.5.:.L r.z.A.A.B.B.B.B.B.B.B.A.B.A.B.B.A.A.A.A.A.A.C.D.b.J 8.J.'.'.'.'.'.'.'.'.V [ .+  ",
"U.Y.x {.'.V ++P.P.P.P.++@+#+..3.3.a.a.a.a.5.:.L r.z.A.A.A.A.A.A.A.A.A.A.A.A.A.A.A.A.B.A.A.A.A.D.b.J 8.J.'.'.'.'.'.'.'.'.V Y.U.  ",
"% V.W.x V $+%+&+*+*+=+-+;+>+a.(.a.3.a.a.a.5.:.L r.s.t.A.A.A.A.A.A.A.A.A.A.A.A.A.A.A.A.A.A.A.t.,+b.J 8.J.'.'.'.'.'.'.'.{.x Y.U.  ",
"  '+V.Y.Y.)+!+~+P.P.P.{+;+]+(.(.3.a.a.a.a.5.:.L <...^+^+^+^+^+^+^+^+^+^+^+^+^+^+^+^+^+^+^+^+/+(+d.<.8.J.'.'.'.'.'.'.'.V W.V.%   ",
"    ] U.Q.!+_+V '.'.'.V @+:+a.a.3.3.a.a.a.5.:.L J c.<+<+<+[+}+[+<+}+}+[+<+<+<+<+<+}+|+[+<+<+<+b.J <.8.J.'.'.'.'.'.'.{.x [ .+    ",
"      { 1+2+3+x V '.'.'.'.4+a.a.3.3.a.a.a.5.:.L <./.5+l.l.6+7+8+9+6+0+a+l.l.m.m.b+6+c+d+l.l.l.e+d.J 8.J.'.'.'.{.V V x W.V.%     ",
"    { 1+2+3+P g.O '.'.'.'.4+a.a.3.3.a.a.a.5.:.L r.f+g+h+i+j+k+l+m+n+o+p+i+q+g+r+q+s+t+u+i+q+v+w+b.<.x+y+P.P.z+y W.[ Y.V.'+      ",
"    U.~+3+P i.h.O '.'.'.'.4+a.a.3.3.a.a.a.5.:.L <.A+B+C+A.D+E+F+G+H+I+J+K+L+M+N+O+P+Q+R+K+S+T+U+d.<.V+W+&+X+Y+Z+V..+U.%         ",
"  { `+ @O i.p.h.O '.'.'.'.4+a.a.3.3.a.a.a.5.:..@+@@@I+#@C.$@%@&@*@H+=@-@;@>@,@'@)@!@Q+R+~@{@]@^@/@e.[.(@_@:@X+<@[@! ] ~ {       ",
"  1+}@|@O h.!.O.O '.'.'.'.4+a.a.3.3.a.a.a.5.:..@+@1@2@3@4@5@6@7@8@9@0@a@b@5@c@7@d@9@e@f@g@h@i@j@k@e.8.J.V  @P.P.P.L.I.r l@m@    ",
"  <@n@o@O g.P O V '.'.'.'.4+a.a.3.3.a.a.a.5.:.L J J J +@J +@+@<.<.J J +@J J J J J J +@+@e.J +@J J p@8.J.'.'.'.'.'.V P q@r@s@&   ",
"  Q.$+'.V x V '.'.'.'.'.'.4+a.a.3.3.a.a.a.5.:.L <.t@u@v@w@e+x@a.y@z@z@z@z@z@z@z@z@z@z@z@A@B@-.d.J <.8.J.'.'.'.'.'.'.V P C@D@.   ",
"  { E@ @'.'.'.'.'.'.'.'.'.4+a.a.3.3.a.a.a.5.6.I J F@G@H@I@(.J@K@L@M@M@M@M@M@M@M@M@M@I@I@N@O@P@Q@d.J 8.J.'.'.'.'.'.'.'.V R@S@l@& ",
"  { T@++'.'.'.'.'.'.'.'.'.4+a.a.3.3.a.a.a.x+U@(.u@V@W@X@Y@Z@`@k. #.#.#.#.#.#.#.#.#.#+#@###$#%#&#*#=#r.9.O O O O V '.'.'.O -#;#m@",
"  & # ++'.'.'.'.'.'.'.'.'.4+a.a.3.3.a.a.a.>#c.,#'#)#!#~#3.{#P@]#c.c.c.c.c.c.c.c.c.c.b.=#3.^#P@K@/#t@(#f.g.i.h.O.O '.'.'.V _#:#<#",
"    [#P.'.V x V '.'.'.'.'.4+a.a.3.3.a.a.a.}#<+|#1#2#3#9+4#5#6#d.J J J J J J J J J J J 7#4#x+6#8#9#0#(#9.O K.!.h.O '.'.'.O i.S@+ ",
"    ) a#P.S.z P O V '.'.'.4+a.a.3.3.a.a.a.}#<+|#1#2#!#b#d.J J J J J d.d.d.d.d.d.d.J J J J J J ##9#0#(#J.x g.h.h.R@O V '.O i.c#T@",
"    { + d#e#f#q.i.P V '.'.4+a.a.3.3.a.a.a.}#<+|#1#2#!#b#d.J J J J J d.d.d.d.d.d.d.J J J J J J g#9#0#(#J.V O P i.h.O.O '.O g.h#i#",
"    { s@j#{ k#l#m#i.P O x n#a.a.3.3.a.a.a.}#<+|#1#2#!#b#d.J d.d.d.d.d.d.d.d.d.d.d.d.d.d.d.J J g#9#0#(#J.'.'.V P i.O.O V O O P.i#",
"    { <#o#! Q.s p#/ q.h.q#r#a.a.3.3.a.a.a.}#<+|#1#2#!#b#d.J J J J J J J J J J J J J J J J J J g#9#0#(#J.'.'.'.V O O V P g.O ++i#",
"    . D@s#L.~+&+.+t#p#).p.u#a.a.3.3.a.a.a.}#<+|#1#)#3#v#d.d.d.d.d.d.d.d.d.d.d.d.d.d.d.d.d.d.d.w#x#y#(#J.'.'.'.'.'.V P i.Q S._@z#",
"  & l@S@R@V V ++~+<@] s l#A#a.a.3.3.a.a.a.}#<+B#1#F@ #A@C#C#C#C#C#C#C#C#C#C#C#C#C#C#C#C#C#C#C#C#z@=#r.f.O O O O O P Q D#E#&+# F#",
"  . G#I.O '.'.'.V 2+<@Q.^ H#a.a.3.3.a.a.a.}#<+B#I#J#b.K#x#x#x#x#x#x#x#x#x#x#x#x#x#x#x#x#x#x#x#0#-.J x+L#D#D#D#D#D#R M#r@+ . j#N#",
"& l@f#!.O '.'.'.'.V ++~+O#P#a.a.3.3.a.a.a.}#<+B#I#Q#<.R#C# # # # # # # # # # # # # # # # # #C#=#d.<.V+S#T#U#V#V#U#W#X#<#Y#  & { ",
"& Z#`#q.O '.'.'.'.'.'.V  $.$a.a.3.3.a.a.a.}#<+B#+$@$J d.b.b.b.b.b.b.b.b.b.b.b.b.b.b.b.b.b.b.b.d.J <.V+#$s#S.++P.c#R `#$$%$&     ",
"  { s R O '.'.'.'.'.'.'.'.&$a.a.3.3.a.a.a.}#<+B#+$@$J J J J J J J J J J J J J J J J J J J J J J J <.*$=$P V '.x g.h.m#f#-${     ",
"    s R O '.'.'.'.'.'.'.'.&$a.a.3.3.a.a.a.}#<+B#+$@$J J J J J J J J J J J J J J J J J J J J J J J J 8.f.V '.'.V O P i.m#`#~     ",
"  ;$r q.O '.'.'.'.'.'.'.V >$a.a.3.3.a.a.a.}#<+B#+$@$J J J J d.d.d.d.d.d.d.d.d.d.d.d.d.d.d.d.d.d.d.J 8.J.'.'.'.'.'.V P !./ ,${   ",
"& '$)$i.O '.'.'.'.'.'.V !$~$a.a.3.3.a.a.a.}#<+B#+${$J J J d.d.d.d.d.d.d.d.d.d.d.d.d.d.d.d.d.d.d.d.J 8.J.'.'.'.'.'.'.O h.]$^$U.  ",
"{ ;#R P V '.'.'.'.'.'.++*+/$a.a.3.3.a.a.a.}#b.($_$:$:$<$J J J J d.d.d.d.d.d.d.d.d.d.d.d.d.d.d.d.d.J 8.J.'.'.'.'.'.'.O i.p.q ]   ",
"{ ;#D#O '.'.'.'.'.'.V _@[$}$a.a.3.3.a.a.a.|$d.d.d.|#+$1$b.J J J d.d.d.d.d.d.d.d.d.d.d.d.d.d.d.d.d.J 8.J.'.'.'.'.'.'.V P !.2$]   ",
"{ ;#D#O '.'.'.'.'.V 3$4$5$6$a.a.3.3.a.a.a.|$b.R#7$8$H@9$C#=#d.d.d.d.d.d.d.d.d.d.d.d.d.d.d.d.d.d.d.J 8.J.'.'.'.'.'.'.'.O i./ s   ",
"{ 0$a$P V '.V ++P._@4$b$i.r#a.a.3.3.a.a.a.}#<+Y@L@c$3#c$d$e$b.J d.d.d.d.d.d.d.d.d.d.d.d.d.d.d.d.d.J 8.J.'.'.'.'.'.'.'.V P q.p#~ ",
"U.f$g$h$y V S.&+1+[$b$i$0.n#a.a.3.3.a.a.a.}#<+g#c$3#N@3#3#j$b.J d.d.d.d.d.d.d.d.d.d.d.d.d.d.d.d.d.J 8.J.'.'.'.'.'.'.'.'.O h.2$] ",
"Q.k$l$m$|.n$o$p$r R Q P '.4+a.a.3.3.a.a.a.}#[+w#q$r$N@s$r$j$b.J d.d.d.d.d.d.d.d.d.d.d.d.d.d.d.d.d.J 8.J.'.'.'.'.'.'.'.'.O h.2$] ",
"$ < w t$< O.u$R i$P O V '.4+a.a.3.3.a.a.a.}#v$w$x$y$7$z$A$B$d.J J J J J J J J J J J J J J J J J J 7.[.J.'.'.'.'.'.'.'.'.O h.2$] ",
"U.T.x ++P C$D$E$P V '.'.'.4+a.a.3.3.a.a.a.F$/@G$H$I$J$K$L$M$e.J J J J J J J J J J J J J J J J J J <.8.J.'.'.'.'.'.'.'.V P _ / ] ",
"% N$P.O$z+P$Q$q#P V '.'.'.Z.R$a.3.3.3.a.a.S$T$U$V$W$X$Y$V$Z$X$X$X$X$X$X$X$X$X$X$X$X$X$X$X$X$X$X$X$`$ %.%'.'.'.'.'.'.V P i.Q +%@%",
"{ #%2+S.$%y W.!.O.~.%%'.'.Z.R$(.a.a.a.a.a.&%*%*%*%*%*%*%*%*%*%*%*%*%*%*%*%*%*%*%*%*%*%*%*%*%*%*%*%=%-%;%'.'.'.'.'.'.x g.O.g$} U.",
"& s@:@E#>%z+,%'%)%!%~%{%]%^%(./%4#4#4#4#4#T$(%(%(%(%(%(%(%(%(%(%(%(%(%(%(%(%(%(%(%(%(%(%(%(%(%(%(%_%:%<%>.>.[%>.[%,.V O O x Y.U.",
"  & . }%E#x |%:+a.a.(.a.a.a.a.|$d.d.d.d.d.d.d.d.d.d.d.d.d.d.d.d.d.d.d.d.d.d.d.d.d.d.d.d.d.d.d.d.d.d.k@J J e.7.J J J.'.'.{.x Y.U.",
"      . 1%2%3%4%a.a.a.a.a.a.a.}#J J J J J J J J J J J J J J J J J J J J J J J J J J J J J J J J J J J <.<.J J J J f.V V x W.V.% ",
"        . :@S.4%3.5%3.3.3.a.a.}#J J d.d.d.d.d.d.d.d.d.d.d.d.d.d.d.d.d.d.d.d.d.d.d.d.d.d.d.d.d.d.d.d.d.d.d.d.d.J d.6%[ Y.Y.V.'+  ",
"          7%;+8%a.a.3.3.3.a.a.}#J J d.d.d.d.d.d.d.d.d.d.d.d.d.d.d.d.d.d.d.d.d.d.d.d.d.d.d.d.d.d.d.d.d.d.d.d.d.J J 9%$ U.U.%     ",
"            0%a%a.a.3.3.3.a.a.}#J J d.d.d.d.d.d.d.d.d.d.d.d.d.d.d.d.d.d.d.d.d.d.d.d.d.d.d.d.d.d.d.d.d.d.d.d.d.J J b%c%          "};