/* XPM */
static char * wall_xpm[] = {
"64 64 5 1",
" 	c #3B3525",
".	c #89867D",
"+	c #736967",
"@	c #949587",
"#	c #B2B0A3",
"                                                                ",
"             .......+++++++++++++                               ",
"     ++++++  .................+++++   ++++++++++++++++++++++++  ",
"    ++++++++  +.................++++++++++++++++++++++++++++++  ",
"   .....@@@@@   .......@..............@@@....@@@@@.......@@++++ ",
"  +.....@@@@@@@  ....................##@@...@@@@@@......@@@@+++ ",
"  +....@@@@@@@@@  ..................##@@@@..@@@@@@..@@@@@@@@+++ ",
"  +@..@@@@@@@@@@@@ ................@@@@@@@@@@@@@@@..@@@@@@@@+++ ",
"  +.....@@@@@@@@@@@ .....@@@.......@@@@@@@@@@@@@....@@@@@@@@+++ ",
"  +.@.....@@@@@@@@@@ .....@...@....@@@@@@@@@@@@.....@@@@@@@@+++ ",
"  +.......@@@@@@@@@@@..............@@@@@@@@@@@@....@@@@@@@..+++ ",
"  +..........@@@@@@@@@@............@@@@@@@@@@@....@@@@@#....+++ ",
"  +.............@@@@@@@@@@@@@.......@@@@@@@@@....@@@@@@##...+++ ",
"  +@@@@@@@.......@@@@@@@@@@@@@@@@@@@.@@@@@........@@@@@@## .+++ ",
"  +@@@@@@@.......@@...@@@@@@@@@@@@@@@@@@......@.....@@@@@#  +++ ",
"  +@@@@@@@.......@.........@@@@@@@@@@@@@.....@@.@.....@@@@. .++ ",
"  +@@@@@.........@.@.....@....@@@.@@@@@@.@.@.@@.@.......... .++ ",
"  +@@@@@..@..   ...@.@.........@@@@@@@@@@@@..@@@@.......... ..+ ",
"  +.##@....  @@ .....@.............@@@@@@@@...@@@..........   + ",
"  +..##..   @@@ ....@................@@@@@@@......@@..@@@@..  + ",
"  +...#@@@@@@@@ ......................@....@@@...@@@@@@@@..     ",
"  +...@@@@@@@@@  ...@...@..................@@@@@@@@@@@@@..      ",
"  ...@@@@...@@@  .......@..................@@@@@@@@@@@@@##..    ",
"  ..@@@@@...@@@@@  .......................@@@@@@@@@@@@@##...  + ",
"  @@@@@@....@@@@@@ ...@...........@......@@@@@@@@@@@@@##..+. ++ ",
"  @@@@@.....@@@@@@ ....@.....@..@@...   @@@@@@@@@@@@@#.......++ ",
"  @@@@@......@@@@@@ ........@@..@..@  @@@@@@@@@@@@@@##.......++ ",
"  @@@....@...@@@@@@@............@..  @@@@@@@@@@@@@@@#........++ ",
"  @@.....@.@@@@@@@@@............... @@@@@@@@@@@@@@@@........+++ ",
"  @.....@@@@@@@@@@@@@.............  @@@@@@@@@@@@@@@@........++  ",
"   ....++++++++++@@@@@@@@........ @@@@@@@@@@@@@@@@@@........++  ",
"       +++        ++++  +++++++       @@@@@@@@@@@@@@........    ",
"                                                                ",
"   +++++++++++++++     +++         +++++++            ++++  +++ ",
"  ........@.@...@..@...@.....     ....#@@@@@@...@.@@@@@.....+++ ",
" +.....@..@....................   ....##..@@.......@@@@@.....+  ",
" +.....@..@@@@...........#.....+ ......#..@........@@@@##....+  ",
" +.....@..@@@@...@.......##....  ......#...........@@@@##....+  ",
" +.....@@.@@@@@..@.......@###..   ..####@.........@@@####...++  ",
"  .....#@@@.@@@@.....@....@@#..#  ....##@.@.....@..@##.......+  ",
"   ....#@@@@@@@@@.@@@@@...@    +  ######@.@........@##.......+  ",
" +  ..  @@@@@@@@@@@@@@@..   ..    @@@@@@..@.@.....@@@##.....++  ",
" +. .  ....@@@@@@@@@@...  @...+   @@@@@@....@....@.@@@####...+  ",
" +.   .....@@@@@@@@@@..  @....+   @@@@@@.........@..@@@@@##..+  ",
" +##  .........@@@@@@.  @.....+   .@@@@@.@..........@@@@@@##++  ",
" +@@@  @@.@@.@@@.@@     #.....+   ..@  @@@@@.........@@@@@@@++  ",
" +..@@ @@.@@@@.....@@@@ ##....+   @.... . @@@..@.@......@@@.++  ",
" +...@@@@@@@........@@@  ###..+   @@......@@...@........@  .++  ",
"  ....@@@@.@..........@@  @##++  @@@     @@@@@....@....@  ...+  ",
"  .@.@.@@@@@@..@@...@@..@   .++  @@@....  @@@.........@  ....+  ",
"  ......@@@@@@.@...@.@...@@ .++  @@@.....   ......@..@@ .....+  ",
"  +...@@@@#@@@@.........@@@..++  @@@@..@..  .....@@.@@@ ....++  ",
"  +...@@@@.@@@......@@.@@@...++  @.......  ......@..@@  ....++  ",
"  +..@@@@@@@@@......@@@@@@@..++  @......  @....@...@   .....++  ",
"  +.@@@.@.@@@@@..@@@@@@@@#@.@++  @......@@.........@@  ....+++  ",
"  +.@@@@##@@@@@.@@@@@@@##....++  @.@.....@.........@@@     +++  ",
"  +@...@@@@@@@@@@@@@@@@##....+++  @@...............@@@@@@@  ++  ",
"  +@.....@....@@@@@.@@@@##....++  @@..........@...@@@@@###. ++  ",
"  +......@............@..@####++  @@@.............@@####... ++  ",
"   ...........@...........@@@#++  @@@..@.@@..@....@@#...... ++  ",
"   .........@@................++  @@@@@@@@@@@@...@@##......     ",
"    ..........................++  ##@@@@.....@@@@@@#........    ",
"     ........@@@@@@@@@@@@@@@..+   ##@@......++++++++++++++      ",
"                                                                "};