/* XPM */
static char * collectible3_xpm[] = {
"64 64 622 2",
"  	c #1D212C",
". 	c #1F232E",
"+ 	c #272C38",
"@ 	c #282E39",
"# 	c #282D39",
"$ 	c #242832",
"% 	c #222731",
"& 	c #1D212D",
"* 	c #252B36",
"= 	c #434A51",
"- 	c #484F56",
"; 	c #484F55",
"> 	c #484F54",
", 	c #434B50",
"' 	c #282D36",
") 	c #232832",
"! 	c #242933",
"~ 	c #212530",
"{ 	c #1E222D",
"] 	c #222631",
"^ 	c #232632",
"/ 	c #424550",
"( 	c #484A55",
"_ 	c #494B56",
": 	c #4E535C",
"< 	c #4E565B",
"[ 	c #4A5256",
"} 	c #495155",
"| 	c #474F54",
"1 	c #474E54",
"2 	c #272C35",
"3 	c #444B50",
"4 	c #485055",
"5 	c #495156",
"6 	c #4A5257",
"7 	c #4E565C",
"8 	c #4F575D",
"9 	c #4D555B",
"0 	c #3F424D",
"a 	c #252834",
"b 	c #444C51",
"c 	c #2C313B",
"d 	c #40434E",
"e 	c #444652",
"f 	c #434651",
"g 	c #3E404C",
"h 	c #262935",
"i 	c #4D505B",
"j 	c #4E525D",
"k 	c #6B757C",
"l 	c #545D61",
"m 	c #545D62",
"n 	c #535C61",
"o 	c #4B4F59",
"p 	c #4A4D57",
"q 	c #494C57",
"r 	c #484C56",
"s 	c #4D5359",
"t 	c #444B51",
"u 	c #454C51",
"v 	c #4F575B",
"w 	c #4B5357",
"x 	c #343A42",
"y 	c #4F585D",
"z 	c #555E63",
"A 	c #565E63",
"B 	c #565F64",
"C 	c #545C62",
"D 	c #494D57",
"E 	c #3E414C",
"F 	c #4F575C",
"G 	c #50585E",
"H 	c #535B61",
"I 	c #525A60",
"J 	c #444752",
"K 	c #3D404B",
"L 	c #4C4F5A",
"M 	c #545C61",
"N 	c #51595E",
"O 	c #4A4E58",
"P 	c #4E555A",
"Q 	c #232732",
"R 	c #50595E",
"S 	c #272C36",
"T 	c #464D53",
"U 	c #424450",
"V 	c #484B56",
"W 	c #535B60",
"X 	c #4A5157",
"Y 	c #2B303B",
"Z 	c #434A50",
"` 	c #4F565C",
" .	c #4B5059",
"..	c #434950",
"+.	c #2E323C",
"@.	c #444853",
"#.	c #252A36",
"$.	c #434652",
"%.	c #292D38",
"&.	c #4C505A",
"*.	c #494B57",
"=.	c #4A4D58",
"-.	c #262A36",
";.	c #242934",
">.	c #4A5258",
",.	c #51585F",
"'.	c #474955",
").	c #484A56",
"!.	c #2E333F",
"~.	c #4B545A",
"{.	c #4F555D",
"].	c #4E555B",
"^.	c #454D53",
"/.	c #282E3A",
"(.	c #2E343F",
"_.	c #323844",
":.	c #2B303C",
"<.	c #4F585E",
"[.	c #454853",
"}.	c #586167",
"|.	c #69747B",
"1.	c #333945",
"2.	c #4A5359",
"3.	c #555F63",
"4.	c #536061",
"5.	c #367A40",
"6.	c #2B8434",
"7.	c #446E50",
"8.	c #546062",
"9.	c #50575E",
"0.	c #272B35",
"a.	c #50545F",
"b.	c #717C83",
"c.	c #303542",
"d.	c #4E565D",
"e.	c #4F645C",
"f.	c #3F744A",
"g.	c #2EB031",
"h.	c #4DD649",
"i.	c #52C14D",
"j.	c #52BE4D",
"k.	c #52BE4E",
"l.	c #55CB4F",
"m.	c #3FC83E",
"n.	c #34973B",
"o.	c #436E4F",
"p.	c #282D37",
"q.	c #495158",
"r.	c #242833",
"s.	c #555E62",
"t.	c #4F535E",
"u.	c #6B757D",
"v.	c #2E3440",
"w.	c #40444F",
"x.	c #484E56",
"y.	c #339E38",
"z.	c #49DB45",
"A.	c #5FCE59",
"B.	c #537E51",
"C.	c #5A5C5A",
"D.	c #878787",
"E.	c #737373",
"F.	c #586457",
"G.	c #549051",
"H.	c #59E252",
"I.	c #44D141",
"J.	c #3C7C45",
"K.	c #2A2F39",
"L.	c #545D63",
"M.	c #4A4C58",
"N.	c #484B57",
"O.	c #282C39",
"P.	c #232734",
"Q.	c #273837",
"R.	c #29982E",
"S.	c #5FE558",
"T.	c #537251",
"U.	c #5B5C5B",
"V.	c #777777",
"W.	c #8D8D8D",
"X.	c #9C9C9C",
"Y.	c #AAAAAA",
"Z.	c #6A6A6A",
"`.	c #818181",
" +	c #5A5B59",
".+	c #5AA355",
"++	c #4BDC47",
"@+	c #3B7E45",
"#+	c #292E38",
"$+	c #6D787F",
"%+	c #5B6469",
"&+	c #414450",
"*+	c #1B4629",
"=+	c #45D742",
"-+	c #5EC457",
";+	c #5D5C5D",
">+	c #7F7F7F",
",+	c #7A7A7A",
"'+	c #5A5A5A",
")+	c #959595",
"!+	c #575757",
"~+	c #999999",
"{+	c #848484",
"]+	c #5B6A5A",
"^+	c #67F15E",
"/+	c #24A828",
"(+	c #4B4E59",
"_+	c #727D84",
":+	c #5C656A",
"<+	c #232733",
"[+	c #212532",
"}+	c #1A4426",
"|+	c #46D742",
"1+	c #5D5D5D",
"2+	c #858585",
"3+	c #555555",
"4+	c #4A4A4A",
"5+	c #484848",
"6+	c #696969",
"7+	c #949494",
"8+	c #596958",
"9+	c #67F25E",
"0+	c #22A526",
"a+	c #484C57",
"b+	c #606972",
"c+	c #272C37",
"d+	c #6D787E",
"e+	c #5A6368",
"f+	c #3F414D",
"g+	c #272B38",
"h+	c #204030",
"i+	c #62C75F",
"j+	c #73EF68",
"k+	c #578954",
"l+	c #667665",
"m+	c #7C7C7C",
"n+	c #757575",
"o+	c #979797",
"p+	c #777977",
"q+	c #5B7159",
"r+	c #5EB358",
"s+	c #83F57A",
"t+	c #247232",
"u+	c #272B37",
"v+	c #4D545A",
"w+	c #50585C",
"x+	c #50585D",
"y+	c #525960",
"z+	c #2B2F3C",
"A+	c #3C5B4D",
"B+	c #29C22A",
"C+	c #7DFE6F",
"D+	c #96F988",
"E+	c #60D958",
"F+	c #5A9A57",
"G+	c #636563",
"H+	c #636263",
"I+	c #627360",
"J+	c #5AAD55",
"K+	c #78F06E",
"L+	c #94F687",
"M+	c #4FCC5E",
"N+	c #115A2A",
"O+	c #242733",
"P+	c #232833",
"Q+	c #3F434D",
"R+	c #282C36",
"S+	c #424751",
"T+	c #416052",
"U+	c #27C228",
"V+	c #3BFE30",
"W+	c #4EFE42",
"X+	c #C5FEC2",
"Y+	c #94FA8E",
"Z+	c #81EA7A",
"`+	c #7FE977",
" @	c #7CE874",
".@	c #78ED6E",
"+@	c #8DF180",
"@@	c #6AD162",
"#@	c #1BA820",
"$@	c #1DB237",
"%@	c #155F2E",
"&@	c #454954",
"*@	c #464C54",
"=@	c #272B36",
"-@	c #444751",
";@	c #4F565B",
">@	c #4E575D",
",@	c #2B3039",
"'@	c #2B303A",
")@	c #2B313B",
"!@	c #2F3440",
"~@	c #424651",
"{@	c #2A2F3B",
"]@	c #38FE2D",
"^@	c #36F52B",
"/@	c #35F52B",
"(@	c #70FB68",
"_@	c #80F17A",
":@	c #73E26C",
"<@	c #6CDF63",
"[@	c #60DC53",
"}@	c #28B228",
"|@	c #089E0E",
"1@	c #0AA012",
"2@	c #1CB236",
"3@	c #16602F",
"4@	c #232631",
"5@	c #434550",
"6@	c #2E333C",
"7@	c #2F3540",
"8@	c #232834",
"9@	c #2A303A",
"0@	c #37FD2C",
"a@	c #286E24",
"b@	c #297925",
"c@	c #34F929",
"d@	c #2AE81F",
"e@	c #19CF0F",
"f@	c #16CA0C",
"g@	c #14C40B",
"h@	c #0BA80E",
"i@	c #099F10",
"j@	c #166030",
"k@	c #272A36",
"l@	c #555D62",
"m@	c #4B5359",
"n@	c #464954",
"o@	c #252A35",
"p@	c #2E343E",
"q@	c #555E64",
"r@	c #297A25",
"s@	c #223821",
"t@	c #233C21",
"u@	c #288323",
"v@	c #29E11E",
"w@	c #2A2E3B",
"x@	c #424650",
"y@	c #4A5259",
"z@	c #495157",
"A@	c #79858B",
"B@	c #2A8325",
"C@	c #233A21",
"D@	c #233F22",
"E@	c #298B23",
"F@	c #29E21E",
"G@	c #222733",
"H@	c #2A2E3A",
"I@	c #414550",
"J@	c #2A2F38",
"K@	c #2F343E",
"L@	c #78838A",
"M@	c #7A868C",
"N@	c #425F52",
"O@	c #28BB29",
"P@	c #286F24",
"Q@	c #16CA0B",
"R@	c #1CB036",
"S@	c #175D2F",
"T@	c #282C37",
"U@	c #41454F",
"V@	c #4B505A",
"W@	c #606A6F",
"X@	c #494F53",
"Y@	c #375336",
"Z@	c #39D131",
"`@	c #37FB2C",
" #	c #36FB2C",
".#	c #16CA0A",
"+#	c #14C40A",
"@#	c #0BA70E",
"##	c #089E0F",
"$#	c #0A9B12",
"%#	c #297B38",
"&#	c #28302D",
"*#	c #262A37",
"=#	c #1E222E",
"-#	c #212632",
";#	c #2A3039",
">#	c #252A34",
",#	c #282E37",
"'#	c #2E333D",
")#	c #313540",
"!#	c #6C757D",
"~#	c #778289",
"{#	c #393939",
"]#	c #415240",
"^#	c #3E8739",
"/#	c #39E02F",
"(#	c #35E82B",
"_#	c #2AE71F",
":#	c #16C90A",
"<#	c #0C9E0F",
"[#	c #0F7414",
"}#	c #1A3E1D",
"|#	c #323A39",
"1#	c #282A2B",
"2#	c #222734",
"3#	c #2D333E",
"4#	c #2C323D",
"5#	c #292F38",
"6#	c #68737A",
"7#	c #535A61",
"8#	c #4A5054",
"9#	c #434243",
"0#	c #424242",
"a#	c #414E40",
"b#	c #3D6C3A",
"c#	c #318C2C",
"d#	c #257E1F",
"e#	c #22791C",
"f#	c #20761B",
"g#	c #1B491C",
"h#	c #1F201F",
"i#	c #212121",
"j#	c #343539",
"k#	c #515560",
"l#	c #232835",
"m#	c #464854",
"n#	c #434551",
"o#	c #39393A",
"p#	c #494949",
"q#	c #404140",
"r#	c #393A39",
"s#	c #303030",
"t#	c #2D2D2D",
"u#	c #2C2C2C",
"v#	c #222222",
"w#	c #1F1F1F",
"x#	c #596268",
"y#	c #6D777E",
"z#	c #464A54",
"A#	c #2A2D39",
"B#	c #495054",
"C#	c #414141",
"D#	c #555D63",
"E#	c #4A4E59",
"F#	c #282D3A",
"G#	c #292F3B",
"H#	c #474C51",
"I#	c #295926",
"J#	c #255F22",
"K#	c #265223",
"L#	c #444753",
"M#	c #272C39",
"N#	c #292E3A",
"O#	c #40434B",
"P#	c #39383A",
"Q#	c #1DA614",
"R#	c #15C50A",
"S#	c #1AA311",
"T#	c #222123",
"U#	c #3D404C",
"V#	c #3B3D46",
"W#	c #4B4B4B",
"X#	c #302E30",
"Y#	c #1F8419",
"Z#	c #1AA212",
"`#	c #333539",
" $	c #4D545B",
".$	c #2C313D",
"+$	c #262830",
"@$	c #1F8519",
"#$	c #212A21",
"$$	c #165318",
"%$	c #17571A",
"&$	c #323A38",
"*$	c #28292B",
"=$	c #434951",
"-$	c #272D38",
";$	c #3A3D49",
">$	c #252830",
",$	c #383839",
"'$	c #434343",
")$	c #202C21",
"!$	c #136316",
"~$	c #136917",
"{$	c #323C38",
"]$	c #26272A",
"^$	c #3E414D",
"/$	c #4C535A",
"($	c #3F424E",
"_$	c #454953",
":$	c #43484D",
"<$	c #22721D",
"[$	c #1D8917",
"}$	c #222322",
"|$	c #17481A",
"1$	c #1A461C",
"2$	c #333639",
"3$	c #232427",
"4$	c #262A35",
"5$	c #4D555C",
"6$	c #212633",
"7$	c #454B51",
"8$	c #454B52",
"9$	c #474A55",
"0$	c #2D2E2C",
"a$	c #2B2D2B",
"b$	c #202121",
"c$	c #262829",
"d$	c #323743",
"e$	c #2D323E",
"f$	c #4B5258",
"g$	c #262B37",
"h$	c #495056",
"i$	c #454C52",
"j$	c #4C5359",
"k$	c #3A3F41",
"l$	c #3A3B3B",
"m$	c #28282A",
"n$	c #2F3235",
"o$	c #484F57",
"p$	c #1F232F",
"q$	c #3F434E",
"r$	c #3C4144",
"s$	c #2F3031",
"t$	c #3F3F3F",
"u$	c #3A3A3A",
"v$	c #313131",
"w$	c #2F2F2F",
"x$	c #2E2E2E",
"y$	c #2B2B2B",
"z$	c #2A2B2B",
"A$	c #2D3032",
"B$	c #484F53",
"C$	c #50555F",
"D$	c #292F3A",
"E$	c #34383A",
"F$	c #333435",
"G$	c #323232",
"H$	c #313232",
"I$	c #323536",
"J$	c #3E4346",
"K$	c #525A5F",
"L$	c #6C767D",
"M$	c #464D55",
"N$	c #2B313C",
"O$	c #41484E",
"P$	c #4D5559",
"Q$	c #4D5459",
"R$	c #464C51",
"S$	c #3B3D45",
"T$	c #3A3C44",
"U$	c #42484C",
"V$	c #40474E",
"W$	c #323840",
"X$	c #2C303D",
"Y$	c #1E232E",
"Z$	c #252936",
"`$	c #495055",
" %	c #4A5156",
".%	c #4B4F58",
"+%	c #41474E",
"@%	c #3D3F4B",
"#%	c #464A55",
"$%	c #292D3A",
"%%	c #222531",
"&%	c #444A51",
"*%	c #272A35",
"=%	c #424551",
"-%	c #2C303C",
";%	c #2A2D38",
">%	c #30343F",
",%	c #495057",
"'%	c #313742",
")%	c #626B73",
"!%	c #4F545E",
"~%	c #4B5259",
"{%	c #31353F",
"]%	c #51595F",
"^%	c #40434F",
"/%	c #41444F",
"(%	c #282D38",
"_%	c #474F55",
":%	c #4A5158",
"<%	c #2C303B",
"[%	c #20242F",
"}%	c #2C313C",
"|%	c #464E54",
"1%	c #4E575C",
"2%	c #50575D",
"3%	c #494E57",
"4%	c #52595F",
"5%	c #2A2E39",
"6%	c #50575C",
"7%	c #4C4F5B",
"8%	c #50555E",
"9%	c #6B747C",
"0%	c #4F525D",
"a%	c #444852",
"b%	c #3B3E4A",
"c%	c #454D52",
"d%	c #363C44",
"e%	c #576066",
"f%	c #2A2F3A",
"g%	c #474D53",
"h%	c #232731",
"i%	c #4B5358",
"j%	c #484E54",
"k%	c #343A43",
"l%	c #494C56",
"m%	c #4A4F58",
"n%	c #262B35",
"o%	c #444C53",
"p%	c #4B535A",
"q%	c #484B55",
"r%	c #454C53",
"s%	c #4F545D",
"t%	c #727D83",
"u%	c #747F85",
"v%	c #596267",
"w%	c #2B2F3A",
"x%	c #485057",
"y%	c #4D565B",
"z%	c #474E56",
"A%	c #4E575B",
"B%	c #40474D",
"C%	c #474F56",
"D%	c #4C545B",
"E%	c #3E454B",
"    . + @ # $ %                                                                                                                 ",
"  & * = - ; > , ' ) ) ) ) ) ) %                   % ) ) ) ) ) ) ) $ ! ! ! ) ~               % ) % { ~ ] ] ] ] ] ] ~             ",
"    ^ / ( _ : < [ } | 1 1 1 | , 2               2 3 | 3 4 5 5 5 6 7 8 8 8 9 0 a         % ' 3 5 b c d e e e e e f g h ~         ",
"    h f i j k l m n o p p q r s t 2           2 u v w x y z z z z A B B B C D E a     2 b [ F m m G H C C C C C I D J K ~       ",
"  ~ g L k M l N z z C C C I O O P t Q     % ' u F m m R z B B B B B B B B z I q E h S T n z z A B B B B B B B B z C I J h       ",
"  ] U V W N m z A B B B B z C C M X Y { ] Z [ F m A B B B B B B B B B B B B z I q / t W A B B B B B B B B B B B B B C D g ~     ",
"  ] U ( ` m A B B B B B B B B B C  ...Q ) X m z A B B B B B B B B B B B B B B z I J +.y B B B B B B B z C C C z z m z I f ]     ",
"  ] U V H A B B B B B B B B B B z I @.#.! 7 A B B B B B B B B B B B B B B B B B C $.%.8 B B B B B B B m &.*.=.I I &.C C J h     ",
"  ] U *.C B B B B B B B B B B B B C J -.;.>.z B B B B B B B B B B B B B B B B B C $.%.8 B B B B B B z C ,.=.'.V V *.C C D g ~   ",
"  ~ g ).C B B z m z B B B B B B B C D d Y !.~.z B B B B B B B B B B B B B B B B C $.%.8 B B B B B B C O =.{.V '.'.*.C z I f ]   ",
"    h J C B B C &.C B B B B B B B z H ].^./.(.R B B B B B B B B B B B B B B B B C $.%.8 B B B B B B C O *.V '.'.'.*.C B C $.]   ",
"    ] e C B z I =.C B B B B B B B B z N y _.:.<.B B B B B B B B B B B B B B B B C $.%.8 B B B B B B z C I V '.V V *.C B C [.]   ",
"    ] e C B C =.*.C B B B B B B B B z n }.|.1.2.z B B 3.4.5.6.6.6.6.7.8.B B B B C $.%.8 B B B B B B B B C *.V 9.I &.C B z 9 )   ",
"    0.[.C z I V *.C B B B B B B B B m &.a.b.c.!.d.C e.f.g.h.i.j.k.l.m.n.o.8.B B C $.p.q.z B B B B B B B C O *.&.C m z B B 8 r.  ",
"  ] , < s.m &.'.*.C B B B B B B B B z I t.u.v.+ w.x.y.z.A.B.C.D.E.F.G.H.I.J.3.B C $.Q K.L.B B B B B B B z C C C z B B B A 7 $   ",
"  ' [ m A z I *.=.C B B B B B B B B B C M.N.O.P.Q.R.S.T.U.V.W.X.Y.Z.`. +.+++@+z I f ] #+$+%+B B B B B B B B B B B B B B z 6 Q   ",
"] 3 F z B B C &.I z B B B B B B B B B C *.&+^ . *+=+-+;+>+,+'+)+`.!+~+{+]+^+/+I (+V Q K._+:+B B B B B B B B B B B B B B z [ '   ",
"Q 5 m A B B z m z B B B B B B B B B B C *.U <+[+}+|+-+1+2+>+3+4+5+6+7+`.8+9+0+J a+b+c+#+d+e+z A B B B B B B B B B B B B z v 3 ] ",
"Q 5 z B B B B B B B B B B B B B B B B C V f+g+# h+i+j+k+l+m+m+n+n+o+p+q+r+s+t+u+O.:.. $ v+w+x+z B B B B B B B B B B B B z v 3 % ",
"Q 5 z B B B B B B B B B B B B B B B z y+&+z+!.2.A+B+C+D+E+F+G+H+H+I+J+K+L+M+N++ O+P+{ ~ Q+s F z B B B B B B B B B B B B z [ R+  ",
"Q 5 m A B z <.8 8 8 8 <.R z B B B z I S+z+!.~.z T+U+V+W+X+Y+Z+`+ @.@+@@@#@$@%@&@f *@=@{ h -@;@z B B B B B B B B B B B B z 5 Q   ",
"% 3 F m z >@,@K.'@'@)@(.!@2.<.<.<.7 ~@{@# 2.z B T+U+]@^@/@(@_@:@<@[@}@|@1@2@3@I O q f+a 4@5@;@z B B B B B B B B B B B A m 5 Q   ",
"  2 3 5 5 u 6@q.8 8 8 2.!@7@7@!.!.(.+ 8@9@<.B B T+U+0@a@b@c@d@e@f@g@h@i@1@2@j@z C I q g k@0 v+l@B B B B B B B B B B B z F 3 %   ",
"    ] Q r.6@m@z B B B z R <.7 n@n@- o@p@<.q@B B T+U+r@s@t@u@v@e@f@g@h@i@1@2@j@B B z I e u+w@x@y+z B B B B B B B B B A m [ R+    ",
"      { p.y@L.m z B B B B B z C H z@p@$+A@%+B B T+U+B@C@D@E@F@e@f@g@h@i@1@2@j@B B B C $.<+G@H@I@9 y n z B B B A z z m F 3 %     ",
"    { p.y@L.I &.C B B B B B B B <.J@K@L@M@%+B B N@O@0@P@b@c@d@e@Q@g@h@i@1@R@S@B B B C e ^ & { ] P+T@U@9 8 8 y n F [ 5 3 2       ",
"    Q q.L.I =.*.C B B B B B B z 9 #+V@L@W@B B B X@Y@Z@`@ #c@d@e@.#+#@###$#%#&#B B z I J *#=#=#-#P+! p.;#K.>#,#b 3 R+Q %         ",
"  { '#R C =.'.*.C B B B B B B C &@)#!#~#%+B B B X@{#]#^#/#(#_#e@:#g@<#[#}#|#1#B B C o a+# 2#8@3#>.8 8 8 >.4#>##+5#! ] ~ {       ",
"  p.6#e+C *.V O C B B B B B B C D e i t.7#C z B 8#{#9#0#a#b#c#d#e#f#g#h#i#j#1#B B C k#u.v.l#3#~.z B B B z R 8 8 8 9 [.g #.=#    ",
"  #+$+%+C &.I C z B B B B B B z I =.m#n#).=.I z 8#o#0#p#0#q#r#s#t#u#v#w#i#j#1#B B z x#y#v./.2.z B B B B B B B B B z I z#z+G@&   ",
"  r.>@B z m z B B B B B B B B B z I J A#E m#=.I B#o#0#'+0#C#{#s#t#u#v#w#i#j#1#B B B D#E#F#G#<.B B B B B B B B B B B z I S+H@.   ",
"  { 3#R B B B B B B B B B B B B B C $.4@a E m#=.H#o#0#'+0#C#{#I#J#K#v#w#i#j#1#B B B C L#M#G#<.B B B B B B B B B B B B z y+w.#.& ",
"  { N#<.B B B B B B B B B B B B B C J h { a E m#O#{#0#p#0#C#P#Q#R#S#T#w#i#j#1#B B B C L#M#G#<.B B B B z C C C C z B B B C n@g+=#",
"  & # <.B B B B B B B B B B B B B C ).U#~ { a U#V#{#0#W#0#C#{#X#Y#Z#T#h#i#`#1#B B B C L#M#G#<.B B B B m &.=.*.O C B B B z  $.$P.",
"    ;.8 B z m z B B B B B B B B B C *./ <+-#] ] +${#0#5+0#C#{#s#@$Z##$$$%$&$*$z B z I J M#G#<.B B B B z C 9.V *.C B B B C =.w.+ ",
"    ) z@8 7 o I C z B B B B B B z I r =$-$w@;$h >$,$'$'$'$C#{#s#@$Z#)$!$~${$]$y+C I q ^$+ 3#G B B B B B m &.*.*.y+C z B C =./$N#",
"    { + o@c+f+).=.I z B B B B A n O d :.:.($m#_$:${#'$'$'$C#{#s#<$[$}$|$1$2$3$I@L#J ^$4$-$T m B B B B B z C I =.*.O C B C &.5$G#",
"    { G@6${ a E m#=.I C C z B z F 7$:.4#8$9$V I B#{#0#'$'$C#{#s#0$a$v#w#b$`#c$d$!.e$g+. # f$z B B B B B B B z I =.O C z C C 8 G#",
"    { P.g$! r.h U#/ ).*.=.I z H h$#+# i$j$( =.C z k$l$0#0#C#{#s#t#u#v#i#m$n$[ G 5$o$O.p$@ 8 A B B B B B B B B z C C z I &.C <.G#",
"    . H@~@9 q.K.R+k@U#U m#=.,.D q$+ 4#h$r _ I z B z r$s$t$t$u$v$w$x$y$z$A$B$B D#C$[.+ G@D$<.B B B B B B B B B B B z I =.D 7 >./.",
"  & #.w.y+z z <.q.#+] h U#&+f ($z+4#T v+( *.C B B B m F E$F$G$G$G$H$I$J$K$z B e+L$a+u+8@G#8 C C C C C C C C C C C I D L#M$K.# l#",
"  . w@[.C B B B z y@#+r.] ] ^ g+N$O$P$Q$( =.C B B B B B z R$S$T$S$U$< B B B B B M r E g$@ - [.$.$.$.$.J L#L#L#L#L#J ($z++ . 6$2#",
"& #.f+V C B B B B z <.q.#+) . g$V$W$h$r =.I z B B B B B C =.'.'.*.C B B B B B z x+v+/ O+G@P+] ] ] ^ O++ :.e$!.!.e$X${@P.Y$  & { ",
"& Z$^$).C B B B B B B z <.z@# #+`$ %j$.%I z B B B B B B C O *.*.O C B B B B B A m < / ^ -#] ] ] ^ *#g+z+~@7 <.8 /$J ^$-.-#&     ",
"  { h J C B B B B B B B B <.3#+%P$P O I z B B B B B B B z C C C C z B B B B B B l@P / ] ] @%U U f J L##%I z B m &.*.m#f+$%{     ",
"    h J C B B B B B B B B <.D$4#X v+o C B B B B B B B B B B B B B B B B B B B B C r g ] h U '.=.I C C C z B B z C I =.m#^$~     ",
"  %%g ).C B B B B B B B z y@o@+ &%z#9.C z B B B B B B B B B B B B B B B B B z C I J *%h E ).=.I z B B B B B B B B z I V / S {   ",
"& *#=%=.C B B B B B B z m@3#g+# e$-%w.D I z B B B B B B B B B B B B z C C C I D J g ;%E q I C z B B B B B B B B B B C *.9$*@Q   ",
"{ g+J I z B B B B B B <.K.w@($&@q.3#k@E q I C z B B z m z B B B z C I O =.(+=.J %.>%d q I z B B B B B B B B B B B B C =.'.f ]   ",
"{ g+L#C B B B B B B z >.'@0 D I z 2.#+h g J D I C z C &.C B B B m &.=.O I C H ,%'%)%!%I z B B B B B B B B B B B B B z I V &+]   ",
"{ g+L#C B B B B B z ~%{%0 q I z B z y@K.R+k@^$L#=.I I =.C B B B z C I ]%8 <.2.!.(.G m z B B B B B B B B B B B B B B B C =./ h   ",
"{ -%#%I z B z <.8 >.{%0 q I z B B B z <.q.;#-%z+^%=.=.(+C B B B z I =./%(%N#3#(._%l A B B B B B B B B B B B B B B B B z I ).U#~ ",
"Q :%]% .n z 7 K.p.<%0 q I z B B B B B B z <.2.!..$,%5$d.z B B z I q 0 O.[%}%|%<.m A B B B B B B B B B B B B B B B B B B C *.&+] ",
"r.1%2%3%` 4%_$5%g J D I z B B B B B B B B B z ~.!@7@7@!@2.<.<.7 &@g h ^ T@y@m A B B B B B B B B B B B B B B B B B B B B C *.&+] ",
"$ < l 6%< O 7%J q I C z B B B B z C C C z B B z R <.2.!@7@7@!.e$+ ] ^ K n@n B B B B B B B B B B B B B B B B B B B B B B C *.&+] ",
"Q 6 m <.I 8%9%0%I z B B B B B B C O *.O C B B B B z H 7 5$/$a%b%Z$. N#n@I z B B B B B B B B B B B B B B B B B B B B B z I _ / ] ",
"% c%8 d%y l@e%(+I z B B B B B B C *.'.*.C B B B B m &.=.q O ; f%=#] d 9.z B B B B B B B B B B B B B B B B B B B B B z I =.D g%h%",
"{ }%y@7 i%n F V =.I z B B B B B C O V *.C B B B B z C ,.D j%Z Q =#*#=%=.I z B B B B B B B B B B B B B B B B B B B B m &.O ]%} Q ",
"& G@4#M$k%y F l%( =.I C z B B B z C I &.C B B B z C I m%..S r.P+G@g+^$n#D I C z B B B B B B B B B B B B B B B B B B z C C m 5 Q ",
"  & . Y M$m m F v+r _ =.I C z B B B z m z z C C I O D ..n%. N$o%K.@ :.z+d r O I C C C z B B B B B B B z C C C z B B B B A m 5 Q ",
"      . N$p%z m x+P r ( _ =.I C D#%+%+B z I D [.l%q%..n%  Q >.m 8 >.r%4#:.&%r *.*.*.=.I C C C C C C C I O D o n z z z z m F 3 % ",
"        . N$p%l@m l F P r ( q p s%t%u%v%d.&@^$w%&%..n%    ) x%8 F y%5 i$4#4#z%q *.*.*.=.(+=.*.*.*.*.*._ r j$h$X 5 5 5 5 5 3 2   ",
"          . N$z@f$< 7 9 ; ; - - h$< A%T 4#g+*#P.g$Q       { Q r.r.$ ' Z B%R+#+C%9 7 H C H D%f &+&+&+&+/ g%t }%+ $ Q Q Q Q %     ",
"            { Q ) $ r.$ $ # /./.# $ Q % { { { { &                     ] R+E%Q Q ;.(.R B R !.Q ] ] ] ] ] h%% { &                 "};