/* XPM */
static char * floor_xpm[] = {
"64 64 6 1",
" 	c #1D212C",
".	c #232835",
"+	c #4F575B",
"@	c #474955",
"#	c #565F64",
"$	c #859298",
"   ...                                                          ",
"  .+++++                                                        ",
"   @@@@+++++++++         ++++++++#####@       +++ @@@@@@@@      ",
"   @@@$+##@@@@@++       +++ ##########@@    +++##########@@@    ",
"  @@$+++######@@++     ++##############@@  +###############@    ",
"  @@++###########+.  +++################@@+################@@   ",
"  @@+############@+  +###################@ #################@   ",
"  @@##############@. ####################@ #########@@@##@##@   ",
"  @@##############@  ####################@ ##########@@@@@##@@  ",
"  @@##############@@..###################@ ########@@#@@@@###@  ",
"   @####@##########++..##################@ ########@@@@@@@###@  ",
"   @####@##########+#..##################@ ##########@@@@@###@  ",
"   @###@@############$.##################@ ##########@@##@####  ",
"   @###@@##########@@$..#################@ ##########@@@######  ",
"  ++##@@@###########@$..@@###############@  ##################  ",
"  +####@@###########@@...@@##############@  $################+  ",
" ++####@############@@  . @@####@@######@@  $################+  ",
" +##################@@ . ..@@@@##@@@@@@@@$  $################++ ",
" +##################@@.. #...........  ...  +++##############++ ",
" +##################@..#############....    @++##############+  ",
" +#################@..#################@@#   @+##############+  ",
" ++###     ..#####@..###################@@@  @+##############+  ",
"  ++++ #####........ #####################@@ @+#############++  ",
"      #########@@#  #######@###############@..@#############+   ",
"     ############# $$######@@##############@ ..@###########++   ",
"    ###@#########  $$#####@@@##############@      @#####++++    ",
"   ###@@######### @$#####@@@@@#############@.  .       ++       ",
"   ##@@@########@ $$#####@@@#@@###########@@....#####.          ",
"  $##@@@########@@@@######################@$...###########@@.   ",
"  $##@###########@@@@@#####################$..#############@..  ",
"  ################@ @@@####################@..##############@.  ",
"  .###############@  @@@###################@..###############@. ",
"  .###############@   @@@##################@..###############@. ",
"  .###############@@   @@@@################@..######@@@@######..",
"   ###############@@ .   @@@....@##########@..########@@#####@@.",
"   ###@###########@+..@   ...##..@###@@###@@..#######@@@#####@#.",
"   .  @@@########@@..@@@########.......@@@@ .+#########@@@###@#.",
"   ..  @@@######++..+@@################.... .+##########@@#####.",
"   ..   @@@@@###+ .++@@###################. .###############@##.",
"   .@##   @@@@#@@..+@@##################@@...##############@@##.",
"  .@#####   @@@@..++@@########@#########$@ ..#############@@# ..",
"  .@######     ..+++@@########@@@#######+@@..#@@@@@@@@@@@@@.. ..",
" .@@########   .+ +@@########@@@@#######++@ .      .........    ",
" .@@##########. +++@#########@@@@########+@ .    ...@####@@ .   ",
"   @##########.+++@######################+@  @@@@@@@####@@@@.   ",
"   @##########..++@######################@@  @@@##########@@@   ",
"  @@########## .+@#######################@  @@@############@@   ",
" .@@#########.....@@###################@@@ @@##############@@#  ",
" .@######### .@@#. @@##############@@@@@  @@###############@@@  ",
" .@######### @@###  @@@####@#####@@@####.$@#################@@  ",
" .@######## @@#####   @@@##@###########..+##################@@  ",
" .@####### @@######## ..@@@@######@@ ...+####################@@ ",
" ##@###   @@###########..########@@. .+######################@@ ",
" #+@+#@ @@@#############....####@@   ########################@@ ",
" ##++@@@@##################......  @@########################@@ ",
" +###@$@#########@@@##########@@. .@#########################@@ ",
" +# ###@#########@@@######@@@@+.  @#########################@@+ ",
" .##+#+@@########@@@########@++  .@@#######################@@#+ ",
" ..# #+@@@#########@#######@+   ..@@@#########################+ ",
"   .###++@@@#############@@+  .# ...@@@#######################+ ",
"    .###++@@@@########@@@@+   ###++..+@@@@@#########@@@######++ ",
"     .####++@@@@@$$##@@ ++    ####++..#@@@@@@@@@@@@@@+++++++++  ",
"      .#+###++++++++.....          ++  #######@@@@@@++..        ",
"             ....                    +   .###.                  "};