/* XPM */
static char *_60bdf3b184b48cab42ca9faf35fbed7cyOfjwoFUDOj0FHB[] = {
/* columns rows colors chars-per-pixel */
"32 32 242 2 ",
"   c None",
".  c #747474",
"X  c #747474",
"o  c #747474",
"O  c #747474",
"+  c #747474",
"@  c #747474",
"#  c #565681",
"$  c #585881",
"%  c #5C5C7E",
"&  c #777773",
"*  c #787871",
"=  c #767673",
"-  c #767573",
";  c #747473",
":  c #757471",
">  c #767470",
",  c #747475",
"<  c #747474",
"1  c #747474",
"2  c #747474",
"3  c #767672",
"4  c #777771",
"5  c #747474",
"6  c #747474",
"7  c #757574",
"8  c #777773",
"9  c #787872",
"0  c #737374",
"q  c #747474",
"w  c gray45",
"e  c #6F6F6F",
"r  c #6C6C6C",
"t  c #717171",
"y  c #838383",
"u  c #A7A7A7",
"i  c #CECECE",
"p  c gray91",
"a  c gray47",
"s  c gray49",
"d  c gray52",
"f  c #909090",
"g  c #A2A2A2",
"h  c gray",
"j  c #DADADA",
"k  c #EEEEEE",
"l  c gray46",
"z  c gray51",
"x  c #989898",
"c  c gray70",
"v  c gray80",
"b  c gray87",
"n  c gray92",
"m  c #F3F3F3",
"M  c #F8F8F8",
"N  c gray44",
"B  c gray53",
"V  c #ECECEC",
"C  c #FEFEFE",
"Z  c white",
"A  c #FDFDFD",
"S  c #868686",
"D  c gray65",
"F  c #CACACA",
"G  c #EAEAEA",
"H  c #FBFBFB",
"J  c #767673",
"K  c #757573",
"L  c #727270",
"P  c #71716E",
"I  c #767674",
"U  c #888886",
"Y  c #A8A8A6",
"T  c #CDCDCB",
"R  c #EDEDEB",
"E  c #FFFFFD",
"W  c #FFFFFE",
"Q  c #757574",
"!  c #777773",
"~  c #767672",
"^  c #73736F",
"/  c #72726E",
"(  c #777774",
")  c #898986",
"_  c #AAAAA6",
"`  c #CFCFCB",
"'  c #EFEFEB",
"]  c #585881",
"[  c #575780",
"{  c #55557E",
"}  c #53537E",
"|  c #575782",
" . c #64648F",
".. c #7C7CA6",
"X. c #9897C1",
"o. c #B0AFD9",
"O. c #BDBCE6",
"+. c #C1C1EA",
"@. c #C1C0E9",
"#. c #BEBDE7",
"$. c #54547F",
"%. c #5C5C7F",
"&. c #63637C",
"*. c #6A6A78",
"=. c #707076",
"-. c #1C1C9B",
";. c #1B1B9B",
":. c #1A1A9B",
">. c #19199B",
",. c #1A1A9D",
"<. c #1E1EA1",
"1. c #2525A8",
"2. c #2E2EAF",
"3. c #3635B6",
"4. c #3A39BA",
"5. c #3C3ABB",
"6. c #3B39BA",
"7. c #19199D",
"8. c #17179C",
"9. c #17179D",
"0. c #282896",
"q. c #3E3E8C",
"w. c #555582",
"e. c #686879",
"r. c #737374",
"t. c #797972",
"y. c #0000AB",
"u. c #0000AA",
"i. c #0000A8",
"p. c #0606A4",
"a. c #0E0EA1",
"s. c #15159F",
"d. c #181AA1",
"f. c #181DA8",
"g. c #151EB0",
"h. c #131FB7",
"j. c #1220BB",
"k. c #1120BD",
"l. c #1120BC",
"z. c #1220BC",
"x. c #0B0BA2",
"c. c #0202A6",
"v. c #0C0CA2",
"b. c #292996",
"n. c #494987",
"m. c #64647B",
"M. c #7B7B71",
"N. c #0000AC",
"B. c #0808A4",
"V. c #1C1B99",
"C. c #34338D",
"Z. c #4A4A87",
"A. c #53598F",
"S. c #5363A6",
"D. c #4D69C2",
"F. c #476DDA",
"G. c #4470E8",
"H. c #4471EC",
"J. c #4471EB",
"K. c #4470E9",
"L. c #494A88",
"P. c #33318E",
"I. c #19189A",
"U. c #0908A4",
"Y. c #0D0DA2",
"T. c #272797",
"R. c #474788",
"E. c #63637B",
"W. c #17179E",
"Q. c #282895",
"!. c #3D3C8A",
"~. c #56547E",
"^. c #6A6A79",
"/. c #707683",
"(. c #68789C",
"). c #5B76BC",
"_. c #4D73D8",
"`. c #4772E8",
"'. c #4571ED",
"]. c #4571EC",
"[. c #4672E9",
"{. c #55537F",
"}. c #3B3A8B",
"|. c #292995",
" X c #3B3B8E",
".X c #535383",
"XX c #68687A",
"oX c #65657A",
"OX c #6E6D76",
"+X c #717175",
"@X c #696A7D",
"#X c #54588D",
"$X c #3942A1",
"%X c #232EB2",
"&X c #1623BB",
"*X c #121FBE",
"=X c #1320BD",
"-X c #1522BC",
";X c #6D6D76",
":X c #64647A",
">X c #5D5D7E",
",X c #62627C",
"<X c #696979",
"1X c #787871",
"2X c #67697E",
"3X c #51568E",
"4X c #3840A1",
"5X c #222DB2",
"6X c #1220BE",
"7X c #767571",
"8X c #767570",
"9X c #747475",
"0X c #6E7484",
"qX c #63739F",
"wX c #5772BE",
"eX c #4D72D9",
"rX c #4572EC",
"tX c #767573",
"yX c #64739F",
"uX c #5773BE",
"iX c #4572ED",
"pX c #4672EC",
"aX c #4772E9",
"sX c #767470",
"dX c #757471",
"fX c #747473",
"gX c #52578F",
"hX c #3942A2",
"jX c #2430B3",
"kX c #1825BD",
"lX c #1422C0",
"zX c #1523BF",
"xX c #1725BD",
"cX c #777771",
"vX c #494886",
"bX c #292893",
"nX c #0D0C9F",
"mX c #0000A5",
"MX c #0000A7",
"NX c #0000A6",
"BX c #484886",
"VX c #787872",
/* pixels */
"q q q q q q w e r t y u i p p i u y t r e w q q q q q q q q q q ",
"q q q w w q a s d f g h j k k j h g f d s a q w w q q q q q q q ",
"q q q t t l z x c v b n m M M m n b v c x z l N t q q q q q q q ",
"q q w N e l B u v V C Z Z A A Z Z C V v u B l e N w q q q q q q ",
"q q w N e l B u v n A Z Z A A Z Z A n v u B l e N w q q q q q q ",
"q q w t e l S D F G H Z Z A A Z Z H G F D S l e N w q q q q q q ",
"q q w t e l S D F G H Z Z A A Z Z H G F D S l e N w q q q q q q ",
"q q w t e l S D F G H Z Z A A Z Z H G F D S l e N w q q q q q q ",
"q q w t e l S D F G H Z Z A A Z Z H G F D S l e N w q q q q q q ",
"q q w t e l S D F G H Z Z A A Z Z H G F D S l e N w q q q q q q ",
"q q w t e l S D F G H Z Z A A Z Z H G F D S l e N w q q q q q q ",
"q q w t e l S D F G H Z Z A A Z Z H G F D S l e N w q q q q q q ",
"q q w t e l S D F G H Z Z A A Z Z H G F D S l e N w q q q q q q ",
"q q w t e l S D F G H Z Z A A Z Z H G F D S l e N w q q q q q q ",
"q q w t e l S D F G H Z Z A A Z Z H G F D S l e N w q q q q q q ",
"q q w t e l S D F G H Z Z A A Z Z H G F D S l e N w q q q q q q ",
"q q w t e l S D F G H Z Z A A Z Z H G F D S l e N w q q q q q q ",
"q q w t e l S D F G H Z Z A A Z Z H G F D S l e N w q q q q q q ",
"q q w t e l S D F G H Z Z A A Z Z H G F D S l e N w q q q q q q ",
"J J K L P I U Y T R E Z Z W W Z Z E R T Y U I P L K K Q Q q q q ",
"! ! ~ ^ / ( ) _ ` ' E Z Z Z Z Z Z E ' ` _ ) ( / ^ ~ J J Q q q q ",
"] ] [ { } |  ...X.o.O.+.@.#.#.@.+.O.o.X... .| } $.[ %.&.*.=.q J ",
"-.-.;.:.>.,.<.1.2.3.4.5.5.6.6.5.5.4.3.2.1.<.7.8.9.-.0.q.w.e.r.t.",
"y.u.i.p.a.s.d.f.g.h.j.k.l.z.z.l.k.j.h.g.f.d.s.x.c.i.v.b.n.m.r.M.",
"N.u.B.V.C.Z.A.S.D.F.G.H.J.K.K.J.H.G.F.D.S.A.L.P.I.U.Y.T.R.E.r.M.",
"W.-.Q.!.~.^./.(.)._.`.'.].[.[.].'.`._.).(./.^.{.}.|.b. X.XXXr.t.",
"# $ % oXOX+X@X#X$X%X&X*X=X-X-X=X*X&X%X$X#X@X+X;X:X>X%.,X<X=.q J ",
"& & & * 1Xq 2X3X4X5X&X6X=X-X-X=X6X&X5X4X3X2Xq 1X1X! J J Q q q q ",
"= = - 7X8X9X0XqXwXeX`.'.rX[.[.rX'.`.eXwXqX0X9X8X8XtXK K Q q q q ",
"o o ; : > , 0XyXuXeX`.iXpXaXaXpXiX`.eXuXqX0X9XsXdXfXq q q q q q ",
"< 1 2 3 4   2XgXhXjXkXlXzXxXxXzXlXkXjXhXgX2Xq cX~ q q q q q q q ",
"5 6 7 8 9 0 m.vXbXnXmXMXMXNXNXMXMXmXnXbXBXm.r.VX! Q q q q q q q "
};
