/* XPM */
static char *_d2cba7566424233fac80d3148b1de55uhZnwRpun246yU2G[] = {
/* columns rows colors chars-per-pixel */
"32 32 157 2 ",
"   c #C84C0C",
".  c #C94B0A",
"X  c #CA4B0A",
"o  c #B45625",
"O  c #886A5B",
"+  c #727576",
"@  c #737576",
"#  c #747474",
"$  c #727577",
"%  c #727476",
"&  c #B35526",
"*  c #85695C",
"=  c #6D7479",
"-  c #6E7378",
";  c #6F7376",
":  c #8A6B5A",
">  c #757675",
",  c #767574",
"<  c #777573",
"1  c #C94B0B",
"2  c #BE5921",
"3  c #AA744D",
"4  c #9F8264",
"5  c #A08263",
"6  c #A08162",
"7  c #C84B0B",
"8  c #C84A0B",
"9  c #CC5D1B",
"0  c #D6803A",
"q  c #DB924A",
"w  c #DB9249",
"e  c #DB9148",
"r  c #C74B0B",
"t  c #C74A0B",
"y  c #D35C15",
"u  c #EA7D28",
"i  c #F68E32",
"p  c #F58E32",
"a  c #F58D31",
"s  c #C74B0C",
"d  c #CF540F",
"f  c #DF6617",
"g  c #E86F1A",
"h  c #E76E1A",
"j  c #C84E0E",
"k  c #C95211",
"l  c #CA5413",
"z  c #C95413",
"x  c #C84C0B",
"c  c #C94C0B",
"v  c #C04F14",
"b  c #B05526",
"n  c #A85830",
"m  c #A8582F",
"M  c #A9572F",
"N  c #B8531F",
"B  c #966349",
"V  c #856B5E",
"C  c #856A5D",
"Z  c #866A5C",
"A  c #B35625",
"S  c #876A5C",
"D  c #707578",
"F  c #717577",
"G  c #727475",
"H  c #CA4B09",
"J  c #B25626",
"K  c #836A5F",
"L  c #6A757C",
"P  c #6B747B",
"I  c #B55624",
"U  c #8D6C59",
"Y  c #797774",
"T  c #797673",
"R  c #7B7671",
"E  c #C15920",
"W  c #B1764A",
"Q  c #A98560",
"!  c #A9855F",
"~  c #A9845E",
"^  c #CE5D1A",
"/  c #DC8137",
"(  c #E29446",
")  c #E29345",
"_  c #E29245",
"`  c #D35B14",
"'  c #EA7A25",
"]  c #F68A2E",
"[  c #F58A2E",
"{  c #F5892D",
"}  c #CE530F",
"|  c #DC6215",
" . c #E36918",
".. c #E36917",
"X. c #C74D0E",
"o. c #C65113",
"O. c #C55215",
"+. c #BF4F16",
"@. c #AC572C",
"#. c #A25A37",
"$. c #A35A36",
"%. c #B75421",
"&. c #93654D",
"*. c #806D64",
"=. c #816D63",
"-. c #826D62",
";. c #B35626",
":. c #866B5D",
">. c #6E7579",
",. c #6F7579",
"<. c #707477",
"1. c #836A5E",
"2. c #6B757B",
"3. c #6C747A",
"4. c #B65624",
"5. c #916D57",
"6. c #7D7871",
"7. c #7E7871",
"8. c #7F776F",
"9. c #C84B0A",
"0. c #C35A1F",
"q. c #B87848",
"w. c #B2885C",
"e. c #B2875C",
"r. c #B3875A",
"t. c #D05D19",
"y. c #E08234",
"u. c #E99442",
"i. c #E89442",
"p. c #E89341",
"a. c #D35A13",
"s. c #E97722",
"d. c #F5862A",
"f. c #F4862A",
"g. c #F48529",
"h. c #CD520E",
"j. c #D95E13",
"k. c #DF6415",
"l. c #DE6415",
"z. c #C64D0F",
"x. c #C25015",
"c. c #C05218",
"v. c #BD5018",
"b. c #A75932",
"n. c #9B5E40",
"m. c #9C5E3F",
"M. c #9C5D3F",
"N. c #B65422",
"B. c #906651",
"V. c #7D7069",
"C. c #7D6F68",
"Z. c #7E6F67",
"A. c #866C5E",
"S. c #6E777B",
"D. c #6F767A",
"F. c #717678",
"G. c white",
/* pixels */
"      . X o O + @ # # # # # # # # # # # # # # @ + O o X .       ",
"      . X o O $ % # # # # # # # # # # # # # # % $ O o X .       ",
"      . X & * = - ; ; ; ; ; ; ; ; ; ; ; ; ; ; - = * & X .       ",
"      . X o : > , < < < < < < < < < < < < < < , > : o X .       ",
"      1 . 2 3 4 5 6 6 6 6 6 6 6 6 6 6 6 6 6 6 5 4 3 2 . 1       ",
"      7 8 9 0 q w e e e e e e e e e e e e e e w q 0 9 8 7       ",
"      r t y u i p a a a a a a a a a a a a a a p i u y t r       ",
"        s d f g h h h h h h h h h h h h h h h h g f d s         ",
"          j k l l z z z z z z z z z z z z z z l l k j           ",
"      x c v b n m M M M M M M M M M M M M M M m n b v c x       ",
"      c X N B V C Z Z Z Z Z Z Z Z Z Z Z Z Z Z C V B N X c       ",
"      . X A S D F G G G G G G G G G G G G G G F D S A X .       ",
"      . H J K L P = = = = = = = = = = = = = = P L K J H .       ",
"      1 X I U Y T R R R R R R R R R R R R R R T Y U I X 1       ",
"      7 . E W Q ! ~ ~ ~ ~ ~ ~ ~ ~ ~ ~ ~ ~ ~ ~ ! Q W E . 7       ",
"      7 t ^ / ( ) _ _ _ _ _ _ _ _ _ _ _ _ _ _ ) ( / ^ t 7       ",
"      s r ` ' ] [ { { { { { { { { { { { { { { [ ] ' ` r s       ",
"        s } |  . ............................. . .| } s         ",
"          X.o.O.O.O.O.O.O.O.O.O.O.O.O.O.O.O.O.O.O.o.X.          ",
"      c c +.@.#.$.$.$.$.$.$.$.$.$.$.$.$.$.$.$.$.#.@.+.c c       ",
"      c X %.&.*.=.-.-.-.-.-.-.-.-.-.-.-.-.-.-.=.*.&.%.X c       ",
"      . H ;.:.>.,.<.<.<.<.<.<.<.<.<.<.<.<.<.<.,.>.:.;.H .       ",
"      . H J 1.2.3.= = = = = = = = = = = = = = 3.2.1.J H .       ",
"      1 X 4.5.6.7.8.8.8.8.8.8.8.8.8.8.8.8.8.8.7.6.5.4.X 1       ",
"      7 9.0.q.w.e.r.r.r.r.r.r.r.r.r.r.r.r.r.r.e.w.q.0.9.7       ",
"      7 t t.y.u.i.p.p.p.p.p.p.p.p.p.p.p.p.p.p.i.u.y.t.t 7       ",
"      s r a.s.d.f.g.g.g.g.g.g.g.g.g.g.g.g.g.g.f.d.s.a.r s       ",
"        s h.j.k.k.l.l.l.l.l.l.l.l.l.l.l.l.l.l.k.k.j.h.s         ",
"          z.x.c.c.c.c.c.c.c.c.c.c.c.c.c.c.c.c.c.c.x.z.          ",
"      c c v.b.n.m.M.M.M.M.M.M.M.M.M.M.M.M.M.M.m.n.b.v.c c       ",
"      1 X N.B.V.C.Z.Z.Z.Z.Z.Z.Z.Z.Z.Z.Z.Z.Z.Z.C.V.B.N.X 1       ",
"      . H ;.A.S.D.F.F.F.F.F.F.F.F.F.F.F.F.F.F.D.S.A.;.H .       "
};
