/* XPM */
static char *_f3e7d6ff77c4675a349e04c2270882dR2not6Tae7HxqXMg[] = {
/* columns rows colors chars-per-pixel */
"32 32 171 2 ",
"   c #7E715E",
".  c #79716F",
"X  c #75786F",
"o  c #6F7377",
"O  c #6F7478",
"+  c #737475",
"@  c #7B7671",
"#  c #727379",
"$  c #B9521E",
"%  c #B35A1E",
"&  c #BC620C",
"*  c #B66B0C",
"=  c #BA6A0C",
"-  c #B46712",
";  c #A8731E",
":  c #BF7914",
">  c #B45425",
",  c #BC5821",
"<  c #BB5422",
"1  c #A45C3A",
"2  c #A36E27",
"3  c #A86D24",
"4  c #BD6827",
"5  c #BD632D",
"6  c #C7470A",
"7  c #CA470C",
"8  c #C64A0B",
"9  c #CA4B0B",
"0  c #CB4A07",
"q  c #C5510A",
"w  c #CB500E",
"e  c #C44C11",
"r  c #CD5A19",
"t  c #CF5C14",
"y  c #D35613",
"u  c #D45B15",
"i  c #D65F18",
"p  c #CD6213",
"a  c #DE671B",
"s  c #DF6A1E",
"d  c #C57516",
"f  c #CA7717",
"g  c #C17815",
"h  c #C87818",
"j  c #E16C1D",
"k  c #D57E38",
"l  c #D87F38",
"z  c #C6662A",
"x  c #E06D20",
"c  c #E67624",
"v  c #E87525",
"b  c #E67926",
"n  c #E87825",
"m  c #EC7C28",
"M  c #976247",
"N  c #996147",
"B  c #87675C",
"V  c #86695C",
"C  c #896A5C",
"Z  c #9F6F51",
"A  c #84715C",
"S  c #897B48",
"D  c #A37452",
"F  c #836C62",
"G  c #8E7F64",
"H  c #8D7A6A",
"J  c #957C65",
"K  c #987D64",
"L  c #937E68",
"P  c #7CBE27",
"I  c #7ABD29",
"U  c #7BA83C",
"Y  c #7ECC0E",
"T  c #7CD40F",
"R  c #7DCE15",
"E  c #7ED410",
"W  c #7CC222",
"Q  c #799C49",
"!  c #769D49",
"~  c #75835E",
"^  c #7C845E",
"/  c #758C5E",
"(  c #768463",
")  c #7B8861",
"_  c #9E980D",
"`  c #9D970C",
"'  c #A7850D",
"]  c #A9870C",
"[  c #A0950E",
"{  c #A09C10",
"}  c #92AF0E",
"|  c #8EB20D",
" . c #8CBB0E",
".. c #87BB0D",
"X. c #91B00E",
"o. c #8DB314",
"O. c #93B511",
"+. c #9ABF17",
"@. c #A6A715",
"#. c #A9A516",
"$. c #A5AA16",
"%. c #A7AD18",
"&. c #AAAE19",
"*. c #B7BB1E",
"=. c #8CA124",
"-. c #86A329",
";. c #81BA22",
":. c #93B02F",
">. c #98B02A",
",. c #92B230",
"<. c #B6BA22",
"1. c #DC8C26",
"2. c #D79126",
"3. c #D89226",
"4. c #D59926",
"5. c #D4942D",
"6. c #D2813E",
"7. c #C69A3E",
"8. c #EE842C",
"9. c #EB8F2E",
"0. c #F2852D",
"q. c #F2892F",
"w. c #F88B2D",
"e. c #EE912F",
"r. c #EB8934",
"t. c #F68731",
"y. c #F88631",
"u. c #F48A31",
"i. c #FB9436",
"p. c #F69C36",
"a. c #FD9B37",
"s. c #FA973B",
"d. c #FE9A3A",
"f. c #DFAA2E",
"g. c #C7B127",
"h. c #C7B228",
"j. c #DEAA30",
"k. c #E2A22F",
"l. c #EAA42E",
"z. c #E6A431",
"x. c #E8A332",
"c. c #E0A830",
"v. c #83CD0E",
"b. c #80D20E",
"n. c #86CE12",
"m. c #95C717",
"M. c #94C817",
"N. c #9CC817",
"B. c #9DC51A",
"V. c #95C918",
"C. c #9BC91A",
"Z. c #99C014",
"A. c #80D010",
"S. c #868448",
"D. c #8C804B",
"F. c #AE845C",
"G. c #B1845B",
"H. c #8A8065",
"J. c #C39B40",
"K. c #DD9046",
"L. c #DD9147",
"P. c #DB9149",
"I. c #C58951",
"U. c #C18A53",
"Y. c #C48753",
"T. c #E08E42",
"R. c #E69343",
"E. c #E19144",
"W. c #E09046",
"Q. c #E69343",
"!. c #E89143",
/* pixels */
"+ + + + + + + + # / I b.b.A.A.A.A.A.A.b.b.I / # + + + + + + + + ",
"+ + + + + + + X ( Q W T T E E E E E E T T W Q ( X + + + + + + + ",
"+ + + + + + + ( U W R E E E E E E E E E E R W U ( + + + + + + + ",
"+ + + @ H H @ / P v. .} X.X.X.X.X.X.X.X.}  .v.P / @ H H @ + + + ",
"+ + + H I.I.H / I  .] * * * * * * * * * * ]  .I / H I.I.H + + + ",
"+ + + K W.W.J ~ -._ & 7 7 7 7 7 7 7 7 7 7 & _ -.~ J W.W.K + + + ",
"+ + + J W.K.L   2 & q 7 7 7 7 7 7 7 7 7 7 q & 2   L K.W.J + + + ",
"+ + + J K.R.F.Z < 9 y p = = p i i p = = p y 9 < Z F.R.K.J + + + ",
"+ + + J K.s.R.k r y v 3.$.$.2.0.0.2.$.$.3.v y r k R.s.K.J + + + ",
"+ + + J K.a.a.0.u i 0.k.%.%.k.d.d.k.%.%.k.0.i i 0.a.a.K.J + + + ",
"+ + + J K.a.a.0.u i 0.9.d d 9.d.d.9.d d 9.0.i u 0.d.a.K.J + + + ",
"+ + + H U.R.s.u.j s u.u.s s u.d.d.u.s s u.u.s s u.i.w.6.J + + + ",
"+ + + @ H F.Q.i.u.u.i.i.u.u.i.d.d.i.u.u.i.i.u.u.i.u.j 5 C + + + ",
"+ + + + O H.J.f.f.z.p.d.d.i.u.8.8.u.i.d.d.p.x.f.f.3.p > V # + + ",
"+ + + # O ) ,.N.N.<.z.d.d.u.s u u s u.d.d.x.<.C.N.#.= > V # + + ",
"+ . F C B S =.| | @.3.u.i.u.s u u s u.p.x.g.M.Y ..` & $ N F . + ",
"# F 1 > > % - * * = p s u.i.u.0.0.t.i.x.<.M.A. .' & q e $ 1 F + ",
"V M $ 9 y y 9 7 8 7 6 y c e.k.j.j.c.k.g.m.T T O.g y 9 7 0 > C + ",
"> $ e y n n y 6 7 8 6 8 y d %.C.C.B.B.m.n.T T +.4.v y 7 7 > C + ",
"7 9 y x u.u.c u w 8 8 9 y d { | |  .v.T E n.M.<.x.u.x y 9 > V + ",
"7 y b u.i.i.u.b u 6 6 u b b d * * '  .T T V.h.x.p.i.u.c y > V + ",
"6 u b u.i.i.u.b u 6 6 i q.e.h & 8 & [ X.| #.1.y.i.d.d.w.j 5 C + ",
"8 w u x u.u.x u w 6 6 i 0.z.%._ & 8 & * * & t x u.d.d.i.w.6.J + ",
"8 6 6 i q.q.i 6 6 6 6 i 0.k.%._ & 8 & * * * * : 4.z.p.s.R.U.H + ",
"8 8 6 i q.q.i 6 6 6 6 i 0.9.h & 8 & [ X.X.} } O.Z.*.l.!.G.H @ + ",
"7 7 6 u b b u 6 6 6 6 i 0.e.f * * ]  .E E E E R W :.7.Y.H o + + ",
"9 9 6 w y y 8 6 6 6 6 i 0.k.&.X.X. .v.E E T T W ! ^ G H @ + + + ",
"> , r p i i i i p p p s m 5.>.I I ;.o.} } X.X.=.^ # + + + + + + ",
"V D l 0.0.0.0.0.q.q.q.m a 4 D./ / S.; * * * * 3 A # + + + + + + ",
"O H U.K.K.P.P.T.r.q.q.v y > B # # F 1 > > > > 1 F + + + + + + + ",
"+ @ H J J L L D z i i y 9 > B # # . F C C C C F . + + + + + + + ",
"+ + + + + o O V > 7 7 7 7 > C + + + + + + + + + + + + + + + + + "
};
