/* XPM */
static char *_920ee816aff464d855bc507c881a9aaZtwlYB5bsSvQM79V[] = {
/* columns rows colors chars-per-pixel */
"32 32 207 2 ",
"   c #7C6F6C",
".  c #77766E",
"X  c #7B716C",
"o  c #757B6D",
"O  c #7F7660",
"+  c #747474",
"@  c #747872",
"#  c #737179",
"$  c #7C7671",
"%  c #CE3E0D",
"&  c #D03E0B",
"*  c #BD5109",
"=  c #BE5A0B",
"-  c #BC4F1E",
";  c #BE5B10",
":  c #BC521A",
">  c #B9581A",
",  c #AD6F0A",
"<  c #BB640D",
"1  c #B66C0D",
"2  c #B9680D",
"3  c #B3660A",
"4  c #AD7C0D",
"5  c #B3730D",
"6  c #B4760E",
"7  c #AD671D",
"8  c #B56414",
"9  c #B56718",
"0  c #AB7815",
"q  c #B67211",
"w  c #AF562E",
"e  c #B55524",
"r  c #B65B2A",
"t  c #B55821",
"y  c #AA5932",
"u  c #A35D3A",
"i  c #A85A37",
"p  c #9B6B37",
"a  c #927B3C",
"s  c #A96927",
"d  c #BA6528",
"f  c #CD4906",
"g  c #C64509",
"h  c #CC450B",
"j  c #C64B0C",
"k  c #CA4B0B",
"l  c #D0410A",
"z  c #C4540B",
"x  c #C2590B",
"c  c #CC520F",
"v  c #C34E13",
"b  c #D24E11",
"n  c #CB5C11",
"m  c #C35011",
"M  c #D45A15",
"N  c #D15613",
"B  c #C0690F",
"V  c #CD6314",
"C  c #C66913",
"Z  c #DD6417",
"A  c #D2621D",
"S  c #DA641B",
"D  c #DE6B1E",
"F  c #C87A18",
"G  c #C15E26",
"H  c #C06830",
"J  c #D37431",
"K  c #E16E21",
"L  c #E67625",
"P  c #E87A27",
"I  c #EA7C29",
"U  c #996247",
"Y  c #986647",
"T  c #8D7B45",
"R  c #8D7848",
"E  c #907942",
"W  c #8D6954",
"Q  c #896B5B",
"!  c #886A5C",
"~  c #936951",
"^  c #857659",
"/  c #997D5A",
"(  c #A4744E",
")  c #AA7651",
"_  c #836D62",
"`  c #897867",
"'  c #957D66",
"]  c #9A7F64",
"[  c #7DBD25",
"{  c #7CBA29",
"}  c #7EA639",
"|  c #7BAA3A",
" . c #7CAD37",
".. c #7AB234",
"X. c #7ED50E",
"o. c #7ADA0F",
"O. c #75D30C",
"+. c #7EC41D",
"@. c #7DCC15",
"#. c #7ED410",
"$. c #7CDB11",
"%. c #7CC123",
"&. c #78C328",
"*. c #789B4A",
"=. c #799E47",
"-. c #768B5C",
";. c #78895B",
":. c #7A8B55",
">. c #789353",
",. c #7CA440",
"<. c #768562",
"1. c #758860",
"2. c #9E9A0D",
"3. c #9E960E",
"4. c #9C8017",
"5. c #949C1E",
"6. c #97941E",
"7. c #A9830D",
"8. c #A6850A",
"9. c #A3910D",
"0. c #A38716",
"q. c #AC9A15",
"w. c #BB9B1D",
"e. c #8FA90C",
"r. c #96A60E",
"t. c #99A30E",
"y. c #93AD0E",
"u. c #8DB60F",
"i. c #8CBB0E",
"p. c #91B20D",
"a. c #8BAC17",
"s. c #98AC12",
"d. c #8AB31B",
"f. c #88BC16",
"g. c #94BA12",
"h. c #9FBD1A",
"j. c #B3A81C",
"k. c #A2BE1B",
"l. c #AEA617",
"z. c #978829",
"x. c #929724",
"c. c #8E853B",
"v. c #968230",
"b. c #899139",
"n. c #8CA621",
"m. c #82B325",
"M. c #81A337",
"N. c #BAAA21",
"B. c #B4BA22",
"V. c #BAB524",
"C. c #C8881D",
"Z. c #CA991F",
"A. c #D58222",
"S. c #DF8B29",
"D. c #DA9A2C",
"F. c #D98139",
"G. c #D58139",
"H. c #CC9238",
"J. c #EE832A",
"K. c #E38A2A",
"L. c #F4842B",
"P. c #F4882F",
"I. c #ED8B33",
"U. c #F48C32",
"Y. c #F98E35",
"T. c #FA8B36",
"R. c #E7913F",
"E. c #EC9D35",
"W. c #F59536",
"Q. c #F99336",
"!. c #F39A36",
"~. c #FE943B",
"^. c #F59C39",
"/. c #FD9A3A",
"(. c #F99837",
"). c #C1AD25",
"_. c #D6A22A",
"`. c #DDA62F",
"'. c #D6A92E",
"]. c #D1A426",
"[. c #C6B428",
"{. c #DEA530",
"}. c #E9A236",
"|. c #E4A834",
" X c #89C30E",
".X c #83CC0E",
"XX c #86C40D",
"oX c #81D30D",
"OX c #83CD11",
"+X c #87C617",
"@X c #94C617",
"#X c #93CA15",
"$X c #93C819",
"%X c #82D111",
"&X c #88DA17",
"*X c #92D51A",
"=X c #A4C21B",
"-X c #82C120",
";X c #ABC621",
":X c #808B4D",
">X c #AE8057",
",X c #B58856",
"<X c #A38161",
"1X c #DC9248",
"2X c #C28A53",
"3X c #E28F41",
"4X c #E39244",
/* pixels */
"+ + + + + + + + + + + + # # # # # # # # + + + + + + + + + + + + ",
"+ + + + + + + + + + . o 1.-.-.-.-.<.o + + # + + + + + + + + + + ",
"+ + + + + + + + + + O :X..&.{ { {  .>.<.+ # # + + + + + + + + + ",
"+ + + + + X _ Q Q W Y v.d.oXX.X.oX+. .*.>.<.o + # # + + + + + + ",
"+ + + + X Q i e e e - 8 9.p..Xo.X.OX+.%.[  .-.o + # # + + + + + ",
"+ + + X W u : k k k h j 2 9.u.X.X.%X#X@X#X+X,.>.-.<.o # # + + + ",
"+ + + Q y : j k k k k k j 2 9.u.O.%XB.[.=X$X-X[ [  .<.# # + + + ",
"+ + + Q y : j k k k j k h j 1 9.u.k.'.{.B.@XOXX.oX+.=.<.o # + + ",
"+ + + X W u : k k k j j k j * < C.D.W.}.B.@XOXX.oXOX+. .<.# # + ",
"+ + + + X ~ d V B B V M N c j M L P.~.}.B.#X%X@.[ +.OX[ -.# # + ",
"+ + + + X / H.Z.l.j.S.I K S S K P./.~.}.B.#XoX%.*.=.+.[ -.# # + ",
"+ $ ` ] <X,XH.].j.N.}.Q.P D D P (./.Y.K.w.s. X{ -.<. . .<.# # + ",
"+ ` 2X4X4XR.I.S.F A.!.(.P D D P (.(.P S n 6 y.m.-.o <.<.o # + + ",
"+ ' G.U.R.4XI.I K L W.(.J.L P J.W.I.D b & = 6.M.;.+ # # # + + + ",
"+ Q H H ) ,X3XQ.U.U.(.(.Q.Y.Q.U.I D N h % e E ;.o + # # + + + + ",
"+ Q r r Q ' 1X/./././.(.!.}.|._.C.F 5 8 : i ! @ + + + + + + + + ",
"+ Q r r Q ' 1X/./././.!.`.[.=X@Xg.g.i.a.a W   + + + + + + + + + ",
"+ Q r G ( >XF.L.P.Y./.^.`.V.@X#.o.X..Xd.a W ^ <.o + + + + + + + ",
"+ Q r A F.F.A M S P Q./.^.{.V.$X$.X.r.0 > t x.} ;.+ + + + + + + ",
"+ Q r Z L.J.n * C A.W./.~.!._.j.g.e.4 x h z 8.x.:.@ + + + + + + ",
"+ Q r Z L.J.C , q.).E.~./.W.K.F q 3 = z k k x s ^ @ + + + + + + ",
"+ Q r A J G.9 8.g.;X'.^./.Q.P S k g j j j k & - T -.o + + + + + ",
"+ Q r G ) ( 7 8.XX&XB.'.^.~.P S j g j j j h & ; 6.} <.+ # + + + ",
"+ Q r r Q _ p 4.a.XX@X;X'.D.A.V j k k k h k z 4 p.[ -.+ # + + + ",
"+ Q e e ! . ^ a 0.2. X&X*Xh.q.q j h h h & z 7.y..X&.-.+ # + + + ",
"+ Q e e Q o -.c.9 1 t.i.i.y.3.7.1 2 1 2 < 4 y..X Xn.T _ X + + + ",
"+ Q e e Q <.} 5.; k < 1 2 1 7.2.y.u.p.y.y.i.#. X9.1 > u _ + + + ",
"+ _ u y U T 5.2.6 2 2 2 < 5 9.p..Xo.X.X.#.#.XXt.1 k f e Q + + + ",
"+ X ! U w > 5 9.y.i.p.y.y.p.i..XoXX.X.o.o..X2.5 z k f e Q + + + ",
"+ + + ! y : ; 6 r.f.f.f.[ { { { { { { [ +Xs.5 z k v : u _ + + + ",
"+ + + X Q u > x < 0 z.b.:.-.-.-.-.-.-.:Xz.0 ; k k : U _ X + + + ",
"+ + + + X ~ e h l v s R X # # # # # # _ p 7 m k k e ! + + + + + "
};
