/* XPM */
static char *_c55928af4984df28a2e3b6992747b96xaRsRz4mivbSk5fA[] = {
/* columns rows colors chars-per-pixel */
"32 32 164 2 ",
"   c #7F6B65",
".  c #78726F",
"X  c #74796F",
"o  c #786E73",
"O  c #6F7377",
"+  c #6E7579",
"@  c #747475",
"#  c #727279",
"$  c #767A73",
"%  c #BF5F0C",
"&  c #B7571F",
"*  c #BB521C",
"=  c #B65A1F",
"-  c #B8591C",
";  c #B7610A",
":  c #BC630C",
">  c #B66B0C",
",  c #B96A0C",
"<  c #AD7D0D",
"1  c #AD691F",
"2  c #B76413",
"3  c #B86511",
"4  c #B66812",
"5  c #BF7914",
"6  c #B45424",
"7  c #BB5520",
"8  c #B55820",
"9  c #BD5821",
"0  c #A55C37",
"q  c #AB5931",
"w  c #A45C3A",
"e  c #A66F25",
"r  c #AD6820",
"t  c #BD632E",
"y  c #A67222",
"u  c #CB460B",
"i  c #C64C0C",
"p  c #CA4A0B",
"a  c #C5520B",
"s  c #CB500E",
"d  c #C54C11",
"f  c #CF5C19",
"g  c #CD5F13",
"h  c #D25613",
"j  c #D45C15",
"k  c #D95F14",
"l  c #D05A1A",
"z  c #CE6213",
"x  c #DF6A1F",
"c  c #C57616",
"v  c #C87618",
"b  c #E16A1F",
"n  c #C86527",
"m  c #C0632B",
"M  c #D66B23",
"N  c #D87E39",
"B  c #E67625",
"V  c #996246",
"C  c #95654B",
"Z  c #8A7B49",
"A  c #8B7B47",
"S  c #89675D",
"D  c #866A5C",
"F  c #896A5A",
"G  c #82675C",
"H  c #83725E",
"J  c #A27251",
"K  c #836C63",
"L  c #896F60",
"P  c #8E7C6A",
"I  c #907766",
"U  c #947B65",
"Y  c #7DBC26",
"T  c #7CBA29",
"R  c #75AF3F",
"E  c #7AAA3C",
"W  c #7BA73C",
"Q  c #7ECD0E",
"!  c #7DD40F",
"~  c #7ECC15",
"^  c #7DD610",
"/  c #7AD810",
"(  c #7DC121",
")  c #799B4A",
"_  c #768A5D",
"`  c #7A845D",
"'  c #758563",
"]  c #718967",
"[  c #9E960E",
"{  c #9B9D0E",
"}  c #9B9914",
"|  c #A9860D",
" . c #A1950E",
".. c #A09B09",
"X. c #9AA40D",
"o. c #92AF0F",
"O. c #8FB30E",
"+. c #8CBC0E",
"@. c #91B10E",
"#. c #90A01F",
"$. c #8CB415",
"%. c #93B611",
"&. c #9BBE17",
"*. c #A7A716",
"=. c #A6AA16",
"-. c #A8AD17",
";. c #A7AD18",
":. c #ABAB19",
">. c #A8A516",
",. c #909E22",
"<. c #8CA323",
"1. c #90A020",
"2. c #81B923",
"3. c #B6B721",
"4. c #B3BA21",
"5. c #B8B822",
"6. c #D98F26",
"7. c #D69426",
"8. c #D99225",
"9. c #D39826",
"0. c #D9823A",
"q. c #D5823D",
"w. c #EF862D",
"e. c #EC8E2E",
"r. c #F2852D",
"t. c #F5882D",
"y. c #E59E2F",
"u. c #E48E3E",
"i. c #F48931",
"p. c #FB9336",
"a. c #F69C36",
"s. c #FC9A37",
"d. c #FE9739",
"f. c #F6983D",
"g. c #FE9A39",
"h. c #DEA72F",
"j. c #DEA82F",
"k. c #C5B327",
"l. c #CAB026",
"z. c #DFA930",
"x. c #E1A22E",
"c. c #E5A331",
"v. c #E9A132",
"b. c #E0A830",
"n. c #83CD0D",
"m. c #80D30D",
"M. c #88D00E",
"N. c #82CD11",
"B. c #97C717",
"V. c #98C416",
"C. c #93CA17",
"Z. c #9DC51A",
"A. c #9AC917",
"S. c #82D212",
"D. c #A0C11A",
"F. c #868449",
"G. c #AC835B",
"H. c #B1845B",
"J. c #D38040",
"K. c #DF9146",
"L. c #DA9149",
"P. c #C38A52",
"I. c #E79343",
"U. c #E59245",
/* pixels */
"@ @ @ @ @ @ @ @ @ @ @ @ @ @ @ @ @ @ @ @ @ @ @ @ @ @ @ @ @ @ @ @ ",
"@ @ @ @ @ @ @ @ @ X ' _ _ _ _ _ _ ' X @ @ @ @ @ @ @ @ @ @ @ @ @ ",
"@ @ @ @ @ @ @ # # ' W Y T T T T Y W ' # # @ @ @ @ @ @ @ @ @ @ @ ",
"@ @ @ @ @ X ' _ _ ) ( m.m.m.! n.+.1.Z S S F F K . @ @ @ @ @ @ @ ",
"@ @ @ # # ' W Y T ( ~ m.m.! ! +.| 2 = 6 6 6 6 0 K # @ @ @ @ @ @ ",
"@ X ' _ _ ) ( M.B.B.N.! ^ N.+.[ : u p p p p p * V K . @ @ @ @ @ ",
"# ' W Y T ( ~ B.l.l.B.! ! +.| : a p p p p p p i * 0 K @ @ @ @ @ ",
"_ ) ( m.m.! ! D.c.v.5.V.%.[ : u p i i p p p p d * 0 K @ @ @ @ @ ",
"T ( N.m.m.! ! Z.x.s.v.9.5 ; a p p i i p p p p * V K . @ @ @ @ @ ",
"m.N.( Y ~ ! ! Z.h.d.d.i.b h p s j z j z , , z t L + @ @ @ @ @ @ ",
"m.( ) ) Y ! ! Z.j.d.d.p.i.B h h B r.r.8.=.=.8.J.I O O @ @ @ @ @ ",
"Y W ' _ T n.+.>.6.i.p.d.g.w.j j w.d.d.x.;.-.x.U.H.U U P . @ @ @ ",
"_ ' $ _ Y +.| : g x i.g.g.w.j j w.g.g.e.c c e.f.I.K.K.P.P @ @ @ ",
"@ @ @ ' E #.3 u u h B i.p.i.x x i.d.d.t.x x t.f.I.u.i.q.U @ @ @ ",
"@ @ @ X ' A = u u p h b i.p.i.i.p.d.d.p.i.t.p.U.G.J n m F @ @ @ ",
"@ @ @ @ # K w = 4 > > 5 9.j.j.c.a.d.d.d.d.d.g.L.P G 6 6 F @ @ @ ",
"@ @ @ @ # o K Z <.@.@.%.&.Z.Z.4.c.d.d.d.d.d.d.L.P G 6 6 F @ @ @ ",
"@ @ @ X ' ` H Z <.+.n.^ ! S.C.4.c.d.d.p.i.r.r.0.G.J 9 6 F @ @ @ ",
"@ @ @ ' E <.y 8 2 | +./ ! C.k.c.a.d.d.i.x j j M 0.0.f 6 F @ @ @ ",
"@ @ # ` <...: u u : [ O.O.:.y.d.d.d.d.e.c ; i j t.t.k 6 D @ @ @ ",
"@ @ # H e : a p p a : > > v e.d.d.d.d.y.:.[ ; j t.t.k 6 D @ @ @ ",
"@ X ' Z & u p p p p p p u j r.d.d.a.v.k.C.O.> l N 0.f 6 F @ @ @ ",
"@ ' W 1.3 u p p p p p p p j r.d.d.v.3.C.S.@., 9 J J 9 6 F @ @ @ ",
"# _ Y +.| : a p p p p p p z 8.z.b.k.C.Q +.} 1 w   D 6 6 F @ @ @ ",
"# _ Y n.+.[ : u u p p u u : *.Z.Z.C.S.+.| r C K @ D 6 6 F @ @ @ ",
"S Z ,.+.m.+.| , > > > > , < { O.O.O.@. .% & Z ] $ F 6 6 F @ @ @ ",
"6 = 2 | +.N.+.o.@.@.@.@.@.{ < , > > > % p 3 <.R ] S 6 6 F @ @ @ ",
"p p u : [ +.N.^ ! ! ! ! ! +.| , , , , > > < X.<.Z C q 0 K @ @ @ ",
"p p p a : | +.^ ! ! ! ! ! n.+.@.@.@.@.@.O.X.< 3 - q C K . @ @ @ ",
"6 7 d p u :  .$.2.T T T T T T Y Y 2.$.@.O.[ : d * 0 K # @ @ @ @ ",
"D C 7 p p a : y F._ _ _ _ _ _ _ _ F.y > > : a * V K @ @ @ @ @ @ ",
"+ D 6 p p p p 6 S # # @ @ @ @ # # S 6 u u p p 6 D # @ @ @ @ @ @ "
};
