/* XPM */
static char *aa11f3cd08904670a4b36c4f93e67b9e4M4XwCooVTnWNNgy[] = {
/* columns rows colors chars-per-pixel */
"32 32 129 2 ",
"   c #78726F",
".  c #75786F",
"X  c #6F7377",
"o  c #6F7479",
"O  c #737475",
"+  c #7B7471",
"@  c #727A70",
"#  c #717379",
"$  c #BF5E0B",
"%  c #BA4F1E",
"&  c #BA521E",
"*  c #BB6B07",
"=  c #BC630D",
"-  c #B76B0D",
";  c #B8690D",
":  c #AD7C0D",
">  c #AF691E",
",  c #A9721E",
"<  c #B55424",
"1  c #BC5821",
"2  c #A45B39",
"3  c #A76E26",
"4  c #BE622E",
"5  c #CE4806",
"6  c #C7470A",
"7  c #CB460B",
"8  c #C64F0C",
"9  c #CA4A0A",
"0  c #C5520B",
"q  c #C54C11",
"w  c #CE5F14",
"e  c #CE5D19",
"r  c #D75E15",
"t  c #D95C17",
"y  c #C56E14",
"u  c #C57314",
"i  c #CA7414",
"p  c #E36A1E",
"a  c #E27D25",
"s  c #996147",
"d  c #956947",
"f  c #996348",
"g  c #866A5C",
"h  c #8A6A5B",
"j  c #84735C",
"k  c #A27150",
"l  c #836C63",
"z  c #896E60",
"x  c #8F7866",
"c  c #8E776D",
"v  c #8D7A6A",
"b  c #967D66",
"n  c #987D65",
"m  c #7DBE24",
"M  c #7CBB29",
"N  c #77AA3B",
"B  c #7BA83C",
"V  c #7ED50F",
"C  c #7DD90E",
"Z  c #7ECC16",
"A  c #7ED410",
"S  c #7CD810",
"D  c #7CC122",
"F  c #759C4A",
"G  c #799B49",
"H  c #7B835D",
"J  c #75895E",
"K  c #758463",
"L  c #9F960E",
"P  c #9C9C0E",
"I  c #9C9912",
"U  c #A7830B",
"Y  c #A9850E",
"T  c #A0960E",
"R  c #A19C10",
"E  c #99A20F",
"W  c #92AE0F",
"Q  c #8FB40E",
"!  c #8CBA0F",
"~  c #91B10F",
"^  c #8DB313",
"/  c #81B91F",
"(  c #A0A110",
")  c #A8A717",
"_  c #ADAB16",
"`  c #8AA227",
"'  c #8AA228",
"]  c #82B722",
"[  c #81B922",
"{  c #9DB42B",
"}  c #DA8F27",
"|  c #D98037",
" . c #E48124",
".. c #EF8D2C",
"X. c #F4872D",
"o. c #F78A2F",
"O. c #F98A2E",
"+. c #E69E2C",
"@. c #FA8930",
"#. c #E1963F",
"$. c #FF9533",
"%. c #F89A3D",
"&. c #C7B626",
"*. c #E2A233",
"=. c #82CB0E",
"-. c #80D20E",
";. c #83CB10",
":. c #96CD16",
">. c #80D010",
",. c #868247",
"<. c #878348",
"1. c #998E54",
"2. c #B0855B",
"3. c #D28240",
"4. c #DE8F48",
"5. c #DF9246",
"6. c #DE9247",
"7. c #DE9147",
"8. c #DD9048",
"9. c #C48752",
"0. c #C18852",
"q. c #C28852",
"w. c #C38A53",
"e. c #C58950",
"r. c #E08F46",
"t. c #E09540",
"y. c #E79443",
"u. c #E19045",
"i. c #E69645",
/* pixels */
"O O O O O O O O # J M -.-.>.>.>.>.>.>.-.-.M J # O O O O O O O O ",
"O O O O O O O . K G m -.-.>.>.>.>.>.>.-.-.m G K . O O O O O O O ",
"O O O O O O O K B D Z -.>.>.>.>.>.>.>.>.-.Z D B K O O O O O O O ",
"O O O + v v + J M -.-.>.>.>.>.>.>.>.>.>.>.-.-.M J + v v + O O O ",
"O O O v e.9.c J M -.-.>.>.>.>.>.>.>.>.>.>.-.-.M J c 9.e.v O O O ",
"O O O n u.#.1.F m -.-.>.>.>.>.>.>.>.>.>.>.-.-.m F 1.#.u.n O O O ",
"O O O b r.*.{ D Z -.>.>.>.>.>.>.>.>.>.>.>.>.-.Z D { *.r.b O O O ",
"O O O b 4.+._ ! =.A A A >.>.>.>.>.>.>.>.A A A =.! _ +.4.b O O O ",
"O O O b 8...i U ! S S A >.>.>.>.>.>.>.>.A S S ! U i ..8.b O O O ",
"O O O b 7.O.p y R ~ ~ ! ;.A A ;.>.A A ;.! ~ ~ R y p O.7.b O O O ",
"O O O b 7.$.o.a u - - Y ! S A >.>.A S ! Y - - u a o.$.7.b O O O ",
"O O O v 0.y.%.X.t 7 7 = L ! ;.A A ;.! L = 7 7 t X.%.y.0.v O O O ",
"O O O + v 2.i.X.t 7 7 0 = Y ! S S ! Y = 0 7 7 t X.i.2.v + O O O ",
"O O O O X b 3. .u = 0 7 7 = T ~ ~ T = 7 7 0 = u  .3.x o O O O O ",
"O O O O O h 4 u ( P = 7 7 8 = ; ; = 8 7 7 = P R u 4 z o O O O O ",
"O O O O O g < = P E : ; - - ; ; ; ; - - ; Y ! Q - % s l   O O O ",
"O O O O # g < 0 = : E ~ ~ ~ W W W W ~ ~ W ! ;.~ - q & 2 l O O O ",
"O O O + v k 1 9 7 ; ~ S S A A A A A A A A S S ~ - 5 5 < h O O O ",
"O O O v 0.| e 9 7 - ~ S S A A A A A A A A S S ~ - 5 5 < h O O O ",
"O O O b 7.X.r 6 7 - ~ S S A A A A A A A A ;.! T = q & 2 l O O O ",
"O O O b 7.X.r 6 7 ; ~ S S A A A A A A S S ! Y $ 9 & s l   O O O ",
"O O O b 7.O.p w = : P ~ W W W W W W W W ~ P : ; ; 3 j # O O O O ",
"O O O b 7.$.@.} ) E : = ; ; ; ; ; ; ; ; = : P ~ ~ ' H # O O O O ",
"O O O v 0.t.*.&.:.! Y = = ; ; ; ; ; ; ; ; Y ! C C M J O O O O O ",
"O O O + v 1.{ :.>.;.! W W W W W W W W W ~ ! ;.V C M J O O O O O ",
"O O O O O K N / ^ ! =.S S S V V V V S ;.! ~ ~ ~ ~ ` H O O O O O ",
"O O O O O @ K ,., Y ! S S S V V V V S ! Y - - - - 3 j O O O O O ",
"O O O O O O # l 2 > I ~ ~ ^ ] M M [ ^ T = 7 7 9 7 < h O O O O O ",
"O O O O O O O + l d > * * , <.J J <., = 0 9 9 9 5 < h O O O O O ",
"O O O O O O O O # l 2 < < 2 l # # l 2 & q 9 9 q & 2 l O O O O O ",
"O O O O O O O O O   l h h l   O O + l f & 9 9 & f l   O O O O O ",
"O O O O O O O O O O O O O O O O O O # g < 9 9 < g # O O O O O O "
};
