/* XPM */
static char *_df524953ae3456f843f606dcc6beb19DXnvDK3CBeZFiWMK[] = {
/* columns rows colors chars-per-pixel */
"32 32 101 2 ",
"   c #293140",
".  c #2B3343",
"X  c #2C3444",
"o  c #2E3748",
"O  c #2F3848",
"+  c #2F3849",
"@  c #313A4B",
"#  c #323B4D",
"$  c #333C4E",
"%  c #343D4F",
"&  c #353F53",
"*  c #363F53",
"=  c #364053",
"-  c #374155",
";  c #384256",
":  c #394357",
">  c #394358",
",  c #3A4458",
"<  c #3C465C",
"1  c #3C475D",
"2  c #3E485C",
"3  c #3F4A5F",
"4  c #3F4B60",
"5  c #3F4B61",
"6  c #404A5F",
"7  c #414B60",
"8  c #414C62",
"9  c #434D62",
"0  c #444E63",
"q  c #434F64",
"w  c #434F66",
"e  c #444F64",
"r  c #445065",
"t  c #445066",
"y  c #455066",
"u  c #455167",
"i  c #455269",
"p  c #475268",
"a  c #46536A",
"s  c #47536B",
"d  c #47546C",
"f  c #49556C",
"g  c #49556E",
"h  c #4A576F",
"j  c #4B576F",
"k  c #4B5870",
"l  c #4C5870",
"z  c #4C5970",
"x  c #4D5A72",
"c  c #4C5A75",
"v  c #4D5A75",
"b  c #4E5C77",
"n  c #4E5C79",
"m  c #515E77",
"M  c #505D7A",
"N  c #515F7C",
"B  c #52607E",
"V  c #54617C",
"C  c #546280",
"Z  c #566481",
"A  c #556482",
"S  c #566483",
"D  c #576583",
"F  c #576684",
"G  c #576685",
"H  c #586787",
"J  c #5A6987",
"K  c #5B6A8A",
"L  c #5B6B8A",
"P  c #5B6B8B",
"I  c #5C6B89",
"U  c #5E6D89",
"Y  c #5F6E8A",
"T  c #5D6C8D",
"R  c #5F6F8E",
"E  c #606E8A",
"W  c #606F8F",
"Q  c #62708D",
"!  c #607090",
"~  c #627192",
"^  c #627293",
"/  c #647393",
"(  c #677593",
")  c #677693",
"_  c #647494",
"`  c #677697",
"'  c #687795",
"]  c #687796",
"[  c #687797",
"{  c #6A7998",
"}  c #6B7A99",
"|  c #6B7B9A",
" . c #6C7B9A",
".. c #6E7E9F",
"X. c #6F7FA0",
"o. c #6F80A1",
"O. c #7081A2",
"+. c #7383A4",
"@. c #7383A5",
"#. c #7384A5",
"$. c #7586A7",
/* pixels */
"u 3 #     X X X X X X X X X   $ 3 9 $   X X X X X X X X X X X X ",
"q u u p s s p p p p p p p p u u u 9 u u p p p p p p p p p p p p ",
"4 z Y ' ' ' ' ' ( ( ( ( ` ( | L f f Y ( ( [ ( ( ( ( ( ( [ ( ( ( ",
"3 b | $.O.......o.X.o.o.X.o.$.| z k | $.o.X.o.O.o.X.o.o.o.o.o.@.",
"3 m ..@.' W ~ ~ ~ R ~ ~ ~ ' @. .z z  .$.( ~ ~ ~ ~ ~ ~ ~ R ` o.$.",
", f E Q Z n M N Z B B n v D W E p a E Q Z n M n N Z n n n Z R ) ",
"O $ 3 6 , * * < s p , = ; ; 3 3 % $ 2 6 > - * 1 p d 3 * ; ; < 7 ",
"u u 7 7 e e 9 9 9 9 9 9 u 9 3 3 u u 9 3 9 q 9 9 4 9 9 9 9 9 9 6 ",
") ' ) ) ` ( ' P f f E ` ( ` ( ) ) ) ) ) ' ' ' P p k Y | ) ) ( ( ",
"........X.X.$.| j j | $.X.X.X.........X...X.+.| k k | $.X.......",
"! Q W W T / X.| l l | O.( ! R ~ R ! R R W ( O.| k k | O.( W R R ",
"G H H D G Y  ./ l f W ' L G G G H G K G G K  .~ k k W | R Z H H ",
"P P P P P R ^ E l u j V J R Y P P P P P R R ~ K f d Y ~ R P P P ",
"Z Z C N N N N v u , ; 6 v B B B Z Z N M N N N v r 9 v V n N B B ",
"h p 1 & > ; ; & @ X @ # - ; = < s s < ; ; ; > & O # = ; ; ; ; ; ",
"4 9 9 q q 9 e e u u u r r 9 e 9 9 9 7 e 9 e e q e u 9 u 9 9 9 r ",
"7 h Y ` ( ( ( ) ( ) ( ) ' ' ' P f f E ` ( ` ( / ' ( ( ( ' / ' W ",
"< b | $.o.X.X...X...........$.| j z | $.X.X.X.X.X.X...X.X.X.+.+.",
"6 b | X.( ! ! ~ ! ! ~ Y R ( O.| z z ' O.^ R R ~ ! ! ! W W / ..+.",
"7 z ` ( R G C C G H H H G K | ^ h f /  .Y G G G G H G S H E '  .",
"9 h K ~ R G v v G Y J P P W ~ Y f f T ~ T K Y P P P P P P P W ~ ",
"3 q n B V n 4 7 n H D M B N M v q e v N N N C N V D B B N N B M ",
"O @ = - , = X * s a 2 * ; ; ; & # # & > > ; ; < f p 3 * ; ; ; ; ",
"u u u 9 9 u u u 9 6 9 9 9 q e 9 e e e e q 9 9 9 9 9 9 9 9 9 e 9 ",
") ) ( ( ( ( ` Y f f W ( ( ( ` / ( ( / ` ' ' ' P a d K [ ) ) ) [ ",
"........X.X.#.| j z | $.X.X.X.X.....X.X.....$.| k k | $.o.......",
"Q Q ! R R ~ o.| j j | X.` R R ! W ~ ! R W ( X.| z z | o.~ R R Q ",
"G H G K G Y | _ h h ^ | R Z G G G G G S Z R | ^ k f ) | Y G H G ",
"K K P P P P ! P d d P ~ P P P P K T K P P P ~ P d d P ! T K K P ",
"S Z Z S Z Z Z n p u n S Z Z Z S Z Z Z Z H C Z n p u n Z Z Z Z Z ",
"d f d h h d f f w u d h g g h f h f f h h g h d p q d h f h f h ",
"7 7 q 7 7 9 4 9 q q 4 8 7 7 7 7 7 7 7 7 7 8 4 4 q q q 7 7 7 7 4 "
};